<svg width="82" height="128" viewBox="0 0 82 128" fill="none" xmlns="http://www.w3.org/2000/svg">
<path d="M0 0H82V120C82 124.418 78.4183 128 74 128H8C3.58172 128 0 124.418 0 120V0Z" fill="#0E2E4A"/>
<path d="M35.9466 44.7298H29.461C29.461 44.7298 29.3642 51.4987 22.1184 52.6459C22.0355 54.491 23.7286 83.7368 35.9466 96.7461V98.9402C35.9466 99.0404 36.1539 99.8627 36.1816 99.9595L39.471 112.115C12.1533 87.9074 13.494 50.6142 13.6909 45.9772C13.7013 45.7353 13.8706 45.5349 14.1021 45.4692C21.7211 43.2958 24.2158 37.6602 24.8101 36.1122C24.824 36.0777 24.8378 36.05 24.8551 36.0189C28.4624 30.0413 33.0303 33.7384 33.3862 34.0252C33.6488 34.236 33.6039 34.2498 35.9466 34.2256V44.7332V44.7298Z" stroke="white" stroke-width="0.890199" stroke-miterlimit="10" stroke-linecap="round"/>
<path d="M21.079 47.4007C21.079 47.7732 20.7771 48.0752 20.4046 48.0752C20.0321 48.0752 19.7302 47.7732 19.7302 47.4007C19.7302 47.0283 20.0321 46.7263 20.4046 46.7263C20.7771 46.7263 21.079 47.0283 21.079 47.4007Z" fill="white" stroke="white" stroke-width="0.890199"/>
<path d="M29.9454 40.345C29.9454 40.7175 29.6434 41.0194 29.2709 41.0194C28.8985 41.0194 28.5965 40.7175 28.5965 40.345C28.5965 39.9725 28.8985 39.6706 29.2709 39.6706C29.6434 39.6706 29.9454 39.9725 29.9454 40.345Z" fill="white" stroke="white" stroke-width="0.890199"/>
<path d="M19.4585 65.707C19.4585 66.0795 19.1565 66.3814 18.7841 66.3814C18.4116 66.3814 18.1096 66.0795 18.1096 65.707C18.1096 65.3345 18.4116 65.0326 18.7841 65.0326C19.1565 65.0326 19.4585 65.3345 19.4585 65.707Z" fill="white" stroke="white" stroke-width="0.890199"/>
<path d="M24.987 86.114C24.987 86.4865 24.685 86.7884 24.3126 86.7884C23.9401 86.7884 23.6381 86.4865 23.6381 86.114C23.6381 85.7416 23.9401 85.4396 24.3126 85.4396C24.685 85.4396 24.987 85.7416 24.987 86.114Z" fill="white" stroke="white" stroke-width="0.890199"/>
<path d="M33.3799 99.7521C33.3799 100.125 33.078 100.427 32.7055 100.427C32.333 100.427 32.0311 100.125 32.0311 99.7521C32.0311 99.3797 32.333 99.0777 32.7055 99.0777C33.078 99.0777 33.3799 99.3797 33.3799 99.7521Z" fill="white" stroke="white" stroke-width="0.890199"/>
<path d="M46.0534 44.7194H52.539C52.539 44.7194 52.6358 51.4884 59.8816 52.6355C59.9645 54.4807 58.2714 83.7264 46.0534 96.7357V98.9298C46.0534 99.03 45.8461 99.8524 45.8184 99.9491L42.529 112.105C69.8467 87.9004 68.506 50.6073 68.3091 45.9702C68.2987 45.7284 68.1294 45.5279 67.8979 45.4623C60.2789 43.2889 57.7842 37.6533 57.1899 36.1053C57.176 36.0708 57.1622 36.0431 57.1449 36.012C53.5376 30.0343 48.9697 33.7315 48.6138 34.0183C48.3512 34.2291 48.3961 34.2429 46.0534 34.2187V44.7263V44.7194Z" stroke="white" stroke-width="0.890199" stroke-miterlimit="10" stroke-linecap="round"/>
<path d="M62.2698 47.3869C62.2698 47.7594 61.9679 48.0613 61.5954 48.0613C61.2229 48.0613 60.921 47.7594 60.921 47.3869C60.921 47.0144 61.2229 46.7125 61.5954 46.7125C61.9679 46.7125 62.2698 47.0144 62.2698 47.3869Z" fill="white" stroke="white" stroke-width="0.890199"/>
<path d="M53.4035 40.3312C53.4035 40.7036 53.1015 41.0056 52.7291 41.0056C52.3566 41.0056 52.0546 40.7036 52.0546 40.3312C52.0546 39.9587 52.3566 39.6567 52.7291 39.6567C53.1015 39.6567 53.4035 39.9587 53.4035 40.3312Z" fill="white" stroke="white" stroke-width="0.890199"/>
<path d="M63.8904 65.6966C63.8904 66.0691 63.5884 66.371 63.2159 66.371C62.8435 66.371 62.5415 66.0691 62.5415 65.6966C62.5415 65.3241 62.8435 65.0222 63.2159 65.0222C63.5884 65.0222 63.8904 65.3241 63.8904 65.6966Z" fill="white" stroke="white" stroke-width="0.890199"/>
<path d="M58.3619 86.1036C58.3619 86.4761 58.0599 86.7781 57.6874 86.7781C57.315 86.7781 57.013 86.4761 57.013 86.1036C57.013 85.7312 57.315 85.4292 57.6874 85.4292C58.0599 85.4292 58.3619 85.7312 58.3619 86.1036Z" fill="white" stroke="white" stroke-width="0.890199"/>
<path d="M49.9689 99.7384C49.9689 100.111 49.6669 100.413 49.2945 100.413C48.922 100.413 48.6201 100.111 48.6201 99.7384C48.6201 99.3659 48.922 99.0639 49.2945 99.0639C49.667 99.0639 49.9689 99.3659 49.9689 99.7384Z" fill="white" stroke="white" stroke-width="0.890199"/>
<path d="M43.5104 12.5065C44.0364 13.1818 44.4198 14.0091 44.6105 14.8226C42.2494 13.8009 39.567 13.8014 37.2063 14.8243C37.3969 14.0102 37.7804 13.1823 38.3067 12.5065C39.0102 11.6033 39.9196 11.0291 40.9053 11.0364V11.0364L40.9119 11.0364C41.8976 11.0291 42.8069 11.6033 43.5104 12.5065Z" fill="white" stroke="white" stroke-width="0.890199"/>
<path d="M44.7341 31.568C42.3015 30.4718 39.5119 30.4718 37.0793 31.568V31.5656V31.5617V31.5578V31.5539V31.55V31.5461V31.5422V31.5382V31.5343V31.5304V31.5265V31.5226V31.5187V31.5147V31.5108V31.5069V31.503V31.4991V31.4952V31.4913V31.4873V31.4834V31.4795V31.4756V31.4717V31.4678V31.4639V31.4599V31.456V31.4521V31.4482V31.4443V31.4404V31.4365V31.4325V31.4286V31.4247V31.4208V31.4169V31.413V31.4091V31.4051V31.4012V31.3973V31.3934V31.3895V31.3856V31.3817V31.3777V31.3738V31.3699V31.366V31.3621V31.3582V31.3543V31.3504V31.3464V31.3425V31.3386V31.3347V31.3308V31.3269V31.323V31.319V31.3151V31.3112V31.3073V31.3034V31.2995V31.2956V31.2917V31.2877V31.2838V31.2799V31.276V31.2721V31.2682V31.2643V31.2604V31.2564V31.2525V31.2486V31.2447V31.2408V31.2369V31.233V31.2291V31.2251V31.2212V31.2173V31.2134V31.2095V31.2056V31.2017V31.1978V31.1939V31.1899V31.186V31.1821V31.1782V31.1743V31.1704V31.1665V31.1626V31.1586V31.1547V31.1508V31.1469V31.143V31.1391V31.1352V31.1313V31.1274V31.1234V31.1195V31.1156V31.1117V31.1078V31.1039V31.1V31.0961V31.0922V31.0883V31.0843V31.0804V31.0765V31.0726V31.0687V31.0648V31.0609V31.057V31.0531V31.0491V31.0452V31.0413V31.0374V31.0335V31.0296V31.0257V31.0218V31.0179V31.014V31.01V31.0061V31.0022V30.9983V30.9944V30.9905V30.9866V30.9827V30.9788V30.9749V30.9709V30.967V30.9631V30.9592V30.9553V30.9514V30.9475V30.9436V30.9397V30.9358V30.9318V30.9279V30.924V30.9201V30.9162V30.9123V30.9084V30.9045V30.9006V30.8967V30.8928V30.8888V30.8849V30.881V30.8771V30.8732V30.8693V30.8654V30.8615V30.8576V30.8537V30.8497V30.8458V30.8419V30.838V30.8341V30.8302V30.8263V30.8224V30.8185V30.8146V30.8107V30.8068V30.8028V30.7989V30.795V30.7911V30.7872V30.7833V30.7794V30.7755V30.7716V30.7677V30.7638V30.7598V30.7559V30.752V30.7481V30.7442V30.7403V30.7364V30.7325V30.7286V30.7247V30.7208V30.7169V30.7129V30.709V30.7051V30.7012V30.6973V30.6934V30.6895V30.6856V30.6817V30.6778V30.6739V30.67V30.666V30.6621V30.6582V30.6543V30.6504V30.6465V30.6426V30.6387V30.6348V30.6309V30.627V30.6231V30.6191V30.6152V30.6113V30.6074V30.6035V30.5996V30.5957V30.5918V30.5879V30.584V30.5801V30.5762V30.5723V30.5683V30.5644V30.5605V30.5566V30.5527V30.551C39.483 29.3256 42.3304 29.3256 44.7341 30.551V31.568Z" fill="white" stroke="white" stroke-width="0.890199"/>
<path d="M44.7341 28.2302C42.3015 27.134 39.5119 27.134 37.0793 28.2302V28.2278V28.2239V28.22V28.2161V28.2122V28.2083V28.2044V28.2004V28.1965V28.1926V28.1887V28.1848V28.1809V28.1769V28.173V28.1691V28.1652V28.1613V28.1574V28.1535V28.1495V28.1456V28.1417V28.1378V28.1339V28.13V28.1261V28.1221V28.1182V28.1143V28.1104V28.1065V28.1026V28.0987V28.0947V28.0908V28.0869V28.083V28.0791V28.0752V28.0713V28.0673V28.0634V28.0595V28.0556V28.0517V28.0478V28.0439V28.0399V28.036V28.0321V28.0282V28.0243V28.0204V28.0165V28.0126V28.0086V28.0047V28.0008V27.9969V27.993V27.9891V27.9852V27.9812V27.9773V27.9734V27.9695V27.9656V27.9617V27.9578V27.9539V27.9499V27.946V27.9421V27.9382V27.9343V27.9304V27.9265V27.9226V27.9186V27.9147V27.9108V27.9069V27.903V27.8991V27.8952V27.8913V27.8873V27.8834V27.8795V27.8756V27.8717V27.8678V27.8639V27.86V27.8561V27.8521V27.8482V27.8443V27.8404V27.8365V27.8326V27.8287V27.8248V27.8209V27.8169V27.813V27.8091V27.8052V27.8013V27.7974V27.7935V27.7896V27.7857V27.7817V27.7778V27.7739V27.77V27.7661V27.7622V27.7583V27.7544V27.7505V27.7465V27.7426V27.7387V27.7348V27.7309V27.727V27.7231V27.7192V27.7153V27.7113V27.7074V27.7035V27.6996V27.6957V27.6918V27.6879V27.684V27.6801V27.6762V27.6722V27.6683V27.6644V27.6605V27.6566V27.6527V27.6488V27.6449V27.641V27.6371V27.6331V27.6292V27.6253V27.6214V27.6175V27.6136V27.6097V27.6058V27.6019V27.598V27.594V27.5901V27.5862V27.5823V27.5784V27.5745V27.5706V27.5667V27.5628V27.5589V27.555V27.551V27.5471V27.5432V27.5393V27.5354V27.5315V27.5276V27.5237V27.5198V27.5159V27.512V27.508V27.5041V27.5002V27.4963V27.4924V27.4885V27.4846V27.4807V27.4768V27.4729V27.469V27.465V27.4611V27.4572V27.4533V27.4494V27.4455V27.4416V27.4377V27.4338V27.4299V27.426V27.422V27.4181V27.4142V27.4103V27.4064V27.4025V27.3986V27.3947V27.3908V27.3869V27.383V27.3791V27.3751V27.3712V27.3673V27.3634V27.3595V27.3556V27.3517V27.3478V27.3439V27.34V27.3361V27.3322V27.3282V27.3243V27.3204V27.3165V27.3126V27.3087V27.3048V27.3009V27.297V27.2931V27.2892V27.2853V27.2813V27.2774V27.2735V27.2696V27.2657V27.2618V27.2579V27.254V27.2501V27.2462V27.2423V27.2384V27.2345V27.2305V27.2266V27.2227V27.2188V27.2149V27.2132C39.483 25.9878 42.3304 25.9878 44.7341 27.2132V28.2302Z" fill="white" stroke="white" stroke-width="0.890199"/>
<path d="M44.7341 24.8958C42.3015 23.7997 39.5119 23.7997 37.0793 24.8958V24.8935V24.8896V24.8856V24.8817V24.8778V24.8739V24.87V24.8661V24.8621V24.8582V24.8543V24.8504V24.8465V24.8426V24.8387V24.8347V24.8308V24.8269V24.823V24.8191V24.8152V24.8112V24.8073V24.8034V24.7995V24.7956V24.7917V24.7878V24.7838V24.7799V24.776V24.7721V24.7682V24.7643V24.7604V24.7564V24.7525V24.7486V24.7447V24.7408V24.7369V24.733V24.729V24.7251V24.7212V24.7173V24.7134V24.7095V24.7056V24.7017V24.6977V24.6938V24.6899V24.686V24.6821V24.6782V24.6743V24.6703V24.6664V24.6625V24.6586V24.6547V24.6508V24.6469V24.643V24.639V24.6351V24.6312V24.6273V24.6234V24.6195V24.6156V24.6117V24.6077V24.6038V24.5999V24.596V24.5921V24.5882V24.5843V24.5804V24.5764V24.5725V24.5686V24.5647V24.5608V24.5569V24.553V24.5491V24.5451V24.5412V24.5373V24.5334V24.5295V24.5256V24.5217V24.5178V24.5139V24.5099V24.506V24.5021V24.4982V24.4943V24.4904V24.4865V24.4826V24.4786V24.4747V24.4708V24.4669V24.463V24.4591V24.4552V24.4513V24.4474V24.4434V24.4395V24.4356V24.4317V24.4278V24.4239V24.42V24.4161V24.4122V24.4083V24.4043V24.4004V24.3965V24.3926V24.3887V24.3848V24.3809V24.377V24.3731V24.3691V24.3652V24.3613V24.3574V24.3535V24.3496V24.3457V24.3418V24.3379V24.334V24.33V24.3261V24.3222V24.3183V24.3144V24.3105V24.3066V24.3027V24.2988V24.2949V24.2909V24.287V24.2831V24.2792V24.2753V24.2714V24.2675V24.2636V24.2597V24.2558V24.2518V24.2479V24.244V24.2401V24.2362V24.2323V24.2284V24.2245V24.2206V24.2167V24.2128V24.2088V24.2049V24.201V24.1971V24.1932V24.1893V24.1854V24.1815V24.1776V24.1737V24.1698V24.1658V24.1619V24.158V24.1541V24.1502V24.1463V24.1424V24.1385V24.1346V24.1307V24.1268V24.1228V24.1189V24.115V24.1111V24.1072V24.1033V24.0994V24.0955V24.0916V24.0877V24.0838V24.0798V24.0759V24.072V24.0681V24.0642V24.0603V24.0564V24.0525V24.0486V24.0447V24.0408V24.0369V24.0329V24.029V24.0251V24.0212V24.0173V24.0134V24.0095V24.0056V24.0017V23.9978V23.9939V23.99V23.986V23.9821V23.9782V23.9743V23.9704V23.9665V23.9626V23.9587V23.9548V23.9509V23.947V23.9431V23.9392V23.9352V23.9313V23.9274V23.9235V23.9196V23.9157V23.9118V23.9079V23.904V23.9001V23.8962V23.8923V23.8883V23.8844V23.8805V23.8788C39.483 22.6535 42.3304 22.6535 44.7341 23.8788V24.8958Z" fill="white" stroke="white" stroke-width="0.890199"/>
<path d="M44.7341 21.558C42.3015 20.4618 39.5119 20.4618 37.0793 21.558V21.5556V21.5517V21.5478V21.5439V21.5399V21.536V21.5321V21.5282V21.5243V21.5204V21.5165V21.5125V21.5086V21.5047V21.5008V21.4969V21.493V21.489V21.4851V21.4812V21.4773V21.4734V21.4695V21.4656V21.4616V21.4577V21.4538V21.4499V21.446V21.4421V21.4382V21.4342V21.4303V21.4264V21.4225V21.4186V21.4147V21.4108V21.4068V21.4029V21.399V21.3951V21.3912V21.3873V21.3834V21.3794V21.3755V21.3716V21.3677V21.3638V21.3599V21.356V21.3521V21.3481V21.3442V21.3403V21.3364V21.3325V21.3286V21.3247V21.3207V21.3168V21.3129V21.309V21.3051V21.3012V21.2973V21.2934V21.2894V21.2855V21.2816V21.2777V21.2738V21.2699V21.266V21.2621V21.2581V21.2542V21.2503V21.2464V21.2425V21.2386V21.2347V21.2308V21.2268V21.2229V21.219V21.2151V21.2112V21.2073V21.2034V21.1995V21.1955V21.1916V21.1877V21.1838V21.1799V21.176V21.1721V21.1682V21.1643V21.1603V21.1564V21.1525V21.1486V21.1447V21.1408V21.1369V21.133V21.1291V21.1251V21.1212V21.1173V21.1134V21.1095V21.1056V21.1017V21.0978V21.0939V21.0899V21.086V21.0821V21.0782V21.0743V21.0704V21.0665V21.0626V21.0587V21.0547V21.0508V21.0469V21.043V21.0391V21.0352V21.0313V21.0274V21.0235V21.0196V21.0156V21.0117V21.0078V21.0039V21V20.9961V20.9922V20.9883V20.9844V20.9805V20.9765V20.9726V20.9687V20.9648V20.9609V20.957V20.9531V20.9492V20.9453V20.9414V20.9374V20.9335V20.9296V20.9257V20.9218V20.9179V20.914V20.9101V20.9062V20.9023V20.8983V20.8944V20.8905V20.8866V20.8827V20.8788V20.8749V20.871V20.8671V20.8632V20.8593V20.8553V20.8514V20.8475V20.8436V20.8397V20.8358V20.8319V20.828V20.8241V20.8202V20.8163V20.8123V20.8084V20.8045V20.8006V20.7967V20.7928V20.7889V20.785V20.7811V20.7772V20.7733V20.7693V20.7654V20.7615V20.7576V20.7537V20.7498V20.7459V20.742V20.7381V20.7342V20.7303V20.7264V20.7224V20.7185V20.7146V20.7107V20.7068V20.7029V20.699V20.6951V20.6912V20.6873V20.6834V20.6795V20.6755V20.6716V20.6677V20.6638V20.6599V20.656V20.6521V20.6482V20.6443V20.6404V20.6365V20.6326V20.6286V20.6247V20.6208V20.6169V20.613V20.6091V20.6052V20.6013V20.5974V20.5935V20.5896V20.5857V20.5818V20.5778V20.5739V20.57V20.5661V20.5622V20.5583V20.5544V20.5505V20.5466V20.5427V20.541C39.483 19.3156 42.3304 19.3156 44.7341 20.541V21.558Z" fill="white" stroke="white" stroke-width="0.890199"/>
<path d="M44.7341 18.2202C42.3015 17.124 39.5119 17.124 37.0793 18.2202V18.2178V18.2139V18.21V18.2061V18.2021V18.1982V18.1943V18.1904V18.1865V18.1826V18.1787V18.1747V18.1708V18.1669V18.163V18.1591V18.1552V18.1512V18.1473V18.1434V18.1395V18.1356V18.1317V18.1278V18.1238V18.1199V18.116V18.1121V18.1082V18.1043V18.1004V18.0964V18.0925V18.0886V18.0847V18.0808V18.0769V18.073V18.069V18.0651V18.0612V18.0573V18.0534V18.0495V18.0456V18.0416V18.0377V18.0338V18.0299V18.026V18.0221V18.0182V18.0143V18.0103V18.0064V18.0025V17.9986V17.9947V17.9908V17.9869V17.9829V17.979V17.9751V17.9712V17.9673V17.9634V17.9595V17.9556V17.9516V17.9477V17.9438V17.9399V17.936V17.9321V17.9282V17.9243V17.9203V17.9164V17.9125V17.9086V17.9047V17.9008V17.8969V17.893V17.889V17.8851V17.8812V17.8773V17.8734V17.8695V17.8656V17.8617V17.8577V17.8538V17.8499V17.846V17.8421V17.8382V17.8343V17.8304V17.8265V17.8225V17.8186V17.8147V17.8108V17.8069V17.803V17.7991V17.7952V17.7913V17.7873V17.7834V17.7795V17.7756V17.7717V17.7678V17.7639V17.76V17.7561V17.7521V17.7482V17.7443V17.7404V17.7365V17.7326V17.7287V17.7248V17.7209V17.7169V17.713V17.7091V17.7052V17.7013V17.6974V17.6935V17.6896V17.6857V17.6818V17.6778V17.6739V17.67V17.6661V17.6622V17.6583V17.6544V17.6505V17.6466V17.6427V17.6387V17.6348V17.6309V17.627V17.6231V17.6192V17.6153V17.6114V17.6075V17.6036V17.5996V17.5957V17.5918V17.5879V17.584V17.5801V17.5762V17.5723V17.5684V17.5645V17.5605V17.5566V17.5527V17.5488V17.5449V17.541V17.5371V17.5332V17.5293V17.5254V17.5215V17.5175V17.5136V17.5097V17.5058V17.5019V17.498V17.4941V17.4902V17.4863V17.4824V17.4785V17.4745V17.4706V17.4667V17.4628V17.4589V17.455V17.4511V17.4472V17.4433V17.4394V17.4355V17.4315V17.4276V17.4237V17.4198V17.4159V17.412V17.4081V17.4042V17.4003V17.3964V17.3925V17.3886V17.3846V17.3807V17.3768V17.3729V17.369V17.3651V17.3612V17.3573V17.3534V17.3495V17.3456V17.3417V17.3377V17.3338V17.3299V17.326V17.3221V17.3182V17.3143V17.3104V17.3065V17.3026V17.2987V17.2948V17.2908V17.2869V17.283V17.2791V17.2752V17.2713V17.2674V17.2635V17.2596V17.2557V17.2518V17.2479V17.244V17.24V17.2361V17.2322V17.2283V17.2244V17.2205V17.2166V17.2127V17.2088V17.2049V17.2032C39.483 15.9778 42.3304 15.9778 44.7341 17.2032V18.2202Z" fill="white" stroke="white" stroke-width="0.890199"/>
<path d="M35.9466 34.5642V98.9367C35.9466 99.0369 35.9604 99.1406 35.9881 99.2373L40.9879 117.409L45.9877 99.2373C46.0154 99.1406 46.0292 99.0369 46.0292 98.9367V34.5642C46.0292 33.6693 45.2898 32.9437 44.381 32.9437H37.5948C36.686 32.9437 35.9466 33.6693 35.9466 34.5642Z" stroke="white" stroke-width="0.890199" stroke-miterlimit="10"/>
<mask id="path-21-inside-1_65_851" fill="white">
<path d="M41.0777 39.6746L40.905 105.042L40.7322 39.6746C40.7322 39.4639 41.0743 39.4328 41.0777 39.6746Z"/>
</mask>
<path d="M41.0777 39.6746L40.905 105.042L40.7322 39.6746C40.7322 39.4639 41.0743 39.4328 41.0777 39.6746Z" fill="white"/>
<path d="M41.0777 39.6746L41.9679 39.677L41.968 39.6695L41.9678 39.6619L41.0777 39.6746ZM40.905 105.042L40.0148 105.045H41.7952L40.905 105.042ZM40.7322 39.6746L39.842 39.6746L39.842 39.677L40.7322 39.6746ZM40.1875 39.6723L40.0148 105.04L41.7952 105.045L41.9679 39.677L40.1875 39.6723ZM41.7952 105.04L41.6224 39.6723L39.842 39.677L40.0148 105.045L41.7952 105.04ZM41.6224 39.6746C41.6224 40.1672 41.2013 40.3825 40.9439 40.3942C40.8002 40.4007 40.6108 40.3622 40.4442 40.2199C40.2603 40.0629 40.19 39.8528 40.1876 39.6874L41.9678 39.6619C41.9638 39.3756 41.8494 39.0787 41.6004 38.866C41.3686 38.6681 41.0931 38.6052 40.8635 38.6156C40.4341 38.635 39.842 38.9713 39.842 39.6746H41.6224Z" fill="white" mask="url(#path-21-inside-1_65_851)"/>
<path d="M46.951 62.9369C50.0534 60.2592 56.8202 57.1573 55.2701 42.6384H26.0844V82.7844L28.5036 90.7091H56.8223C56.8223 90.7091 60.3467 69.1406 46.9531 62.939L46.951 62.9369ZM36.9397 48.7H44.5526C44.6926 61.527 36.9397 59.5552 36.9397 59.5552V48.7ZM45.9628 85.6334H36.9397V65.1928C50.8974 70.8325 45.9628 85.6334 45.9628 85.6334Z" fill="white" stroke="#0E2E4A" stroke-width="0.890199" stroke-miterlimit="10" stroke-linecap="round"/>
</svg>
