<svg width="78" height="136" viewBox="0 0 78 136" fill="none" xmlns="http://www.w3.org/2000/svg">
<g clip-path="url(#clip0_58_447)">
<path d="M0 0H77.5107V127.993C77.5107 132.411 73.929 135.993 69.5107 135.993H8C3.58172 135.993 0 132.411 0 127.993V0Z" fill="#0E2E4A"/>
<g filter="url(#filter0_d_58_447)">
<path d="M33.0787 46.3494H25.7931C25.7931 46.3494 25.6844 53.9532 17.5449 55.2419C17.4517 57.3146 19.3537 90.1677 33.0787 104.782V107.246C33.0787 107.359 33.3116 108.283 33.3426 108.391L37.0378 122.046C6.35063 94.8526 7.85665 52.9596 8.0779 47.7506C8.08954 47.4789 8.27974 47.2538 8.5398 47.18C17.0985 44.7385 19.901 38.4078 20.5686 36.6689C20.5841 36.6301 20.5996 36.599 20.619 36.5641C24.6713 29.8491 29.8027 34.0023 30.2025 34.3245C30.4975 34.5612 30.447 34.5768 33.0787 34.5496V46.3533V46.3494Z" stroke="white" stroke-miterlimit="10" stroke-linecap="round"/>
<path d="M16.3773 49.3498C16.3773 49.7682 16.0381 50.1074 15.6197 50.1074C15.2012 50.1074 14.8621 49.7682 14.8621 49.3498C14.8621 48.9314 15.2012 48.5922 15.6197 48.5922C16.0381 48.5922 16.3773 48.9314 16.3773 49.3498Z" fill="white" stroke="white"/>
<path d="M26.3372 41.4237C26.3372 41.8422 25.998 42.1814 25.5796 42.1814C25.1612 42.1814 24.822 41.8422 24.822 41.4237C24.822 41.0053 25.1612 40.6661 25.5796 40.6661C25.998 40.6661 26.3372 41.0053 26.3372 41.4237Z" fill="white" stroke="white"/>
<path d="M14.5568 69.914C14.5568 70.3324 14.2176 70.6716 13.7992 70.6716C13.3808 70.6716 13.0416 70.3324 13.0416 69.914C13.0416 69.4956 13.3808 69.1564 13.7992 69.1564C14.2177 69.1564 14.5568 69.4956 14.5568 69.914Z" fill="white" stroke="white"/>
<path d="M20.7672 92.8381C20.7672 93.2566 20.4281 93.5957 20.0096 93.5957C19.5912 93.5957 19.252 93.2566 19.252 92.8381C19.252 92.4197 19.5912 92.0805 20.0096 92.0805C20.4281 92.0805 20.7672 92.4197 20.7672 92.8381Z" fill="white" stroke="white"/>
<path d="M30.1954 108.158C30.1954 108.577 29.8562 108.916 29.4378 108.916C29.0194 108.916 28.6802 108.577 28.6802 108.158C28.6802 107.74 29.0194 107.401 29.4378 107.401C29.8562 107.401 30.1954 107.74 30.1954 108.158Z" fill="white" stroke="white"/>
<path d="M44.4321 46.3377H51.7177C51.7177 46.3377 51.8263 53.9416 59.9659 55.2302C60.059 57.303 58.1571 90.156 44.4321 104.77V107.235C44.4321 107.347 44.1992 108.271 44.1681 108.38L40.4729 122.035C71.1601 94.8449 69.6541 52.9518 69.4328 47.7428C69.4212 47.4711 69.231 47.246 68.971 47.1722C60.4122 44.7308 57.6098 38.4 56.9422 36.6611C56.9266 36.6223 56.9111 36.5912 56.8917 36.5563C52.8394 29.8413 47.7081 33.9945 47.3083 34.3167C47.0133 34.5535 47.0637 34.569 44.4321 34.5418V46.3455V46.3377Z" stroke="white" stroke-miterlimit="10" stroke-linecap="round"/>
<path d="M62.6487 49.3342C62.6487 49.7526 62.3095 50.0918 61.8911 50.0918C61.4727 50.0918 61.1335 49.7526 61.1335 49.3342C61.1335 48.9158 61.4727 48.5766 61.8911 48.5766C62.3095 48.5766 62.6487 48.9158 62.6487 49.3342Z" fill="white" stroke="white"/>
<path d="M52.6887 41.4082C52.6887 41.8266 52.3495 42.1658 51.9311 42.1658C51.5127 42.1658 51.1735 41.8266 51.1735 41.4082C51.1735 40.9898 51.5127 40.6506 51.9311 40.6506C52.3495 40.6506 52.6887 40.9898 52.6887 41.4082Z" fill="white" stroke="white"/>
<path d="M64.4691 69.9023C64.4691 70.3207 64.1299 70.6599 63.7115 70.6599C63.2931 70.6599 62.9539 70.3207 62.9539 69.9023C62.9539 69.4839 63.2931 69.1447 63.7115 69.1447C64.1299 69.1447 64.4691 69.4839 64.4691 69.9023Z" fill="white" stroke="white"/>
<path d="M58.2587 92.8265C58.2587 93.2449 57.9195 93.5841 57.5011 93.5841C57.0827 93.5841 56.7435 93.2449 56.7435 92.8265C56.7435 92.4081 57.0827 92.0689 57.5011 92.0689C57.9195 92.0689 58.2587 92.4081 58.2587 92.8265Z" fill="white" stroke="white"/>
<path d="M48.8305 108.143C48.8305 108.561 48.4913 108.901 48.0729 108.901C47.6545 108.901 47.3153 108.561 47.3153 108.143C47.3153 107.725 47.6545 107.385 48.0729 107.385C48.4913 107.385 48.8305 107.725 48.8305 108.143Z" fill="white" stroke="white"/>
<path d="M41.5753 10.1515C42.1661 10.9102 42.5968 11.8394 42.811 12.7534C40.1587 11.6056 37.1455 11.6062 34.4936 12.7552C34.7077 11.8407 35.1385 10.9107 35.7297 10.1515C36.52 9.13693 37.5415 8.49191 38.6488 8.50008V8.50013L38.6562 8.50008C39.7635 8.49191 40.785 9.13693 41.5753 10.1515Z" fill="white" stroke="white"/>
<path d="M42.95 31.5642C40.2174 30.3328 37.0838 30.3328 34.3511 31.5642V31.5615V31.5571V31.5527V31.5483V31.5439V31.5395V31.5351V31.5307V31.5263V31.5219V31.5176V31.5132V31.5088V31.5044V31.5V31.4956V31.4912V31.4868V31.4824V31.478V31.4736V31.4692V31.4648V31.4604V31.456V31.4516V31.4472V31.4428V31.4384V31.434V31.4296V31.4252V31.4208V31.4164V31.412V31.4076V31.4032V31.3988V31.3944V31.39V31.3856V31.3812V31.3768V31.3724V31.368V31.3636V31.3592V31.3549V31.3505V31.3461V31.3417V31.3373V31.3329V31.3285V31.3241V31.3197V31.3153V31.3109V31.3065V31.3021V31.2977V31.2933V31.2889V31.2845V31.2801V31.2757V31.2713V31.2669V31.2625V31.2581V31.2538V31.2494V31.245V31.2406V31.2362V31.2318V31.2274V31.223V31.2186V31.2142V31.2098V31.2054V31.201V31.1966V31.1922V31.1878V31.1834V31.179V31.1746V31.1703V31.1659V31.1615V31.1571V31.1527V31.1483V31.1439V31.1395V31.1351V31.1307V31.1263V31.1219V31.1175V31.1131V31.1087V31.1043V31.0999V31.0956V31.0912V31.0868V31.0824V31.078V31.0736V31.0692V31.0648V31.0604V31.056V31.0516V31.0472V31.0428V31.0384V31.034V31.0297V31.0253V31.0209V31.0165V31.0121V31.0077V31.0033V30.9989V30.9945V30.9901V30.9857V30.9813V30.9769V30.9725V30.9681V30.9638V30.9594V30.955V30.9506V30.9462V30.9418V30.9374V30.933V30.9286V30.9242V30.9198V30.9154V30.911V30.9067V30.9023V30.8979V30.8935V30.8891V30.8847V30.8803V30.8759V30.8715V30.8671V30.8627V30.8583V30.854V30.8496V30.8452V30.8408V30.8364V30.832V30.8276V30.8232V30.8188V30.8144V30.81V30.8056V30.8013V30.7969V30.7925V30.7881V30.7837V30.7793V30.7749V30.7705V30.7661V30.7617V30.7573V30.7529V30.7486V30.7442V30.7398V30.7354V30.731V30.7266V30.7222V30.7178V30.7134V30.709V30.7046V30.7003V30.6959V30.6915V30.6871V30.6827V30.6783V30.6739V30.6695V30.6651V30.6607V30.6563V30.652V30.6476V30.6432V30.6388V30.6344V30.63V30.6256V30.6212V30.6168V30.6124V30.608V30.6037V30.5993V30.5949V30.5905V30.5861V30.5817V30.5773V30.5729V30.5685V30.5641V30.5598V30.5554V30.551V30.5466V30.5422V30.5378V30.5334V30.529V30.5246V30.5202V30.5159V30.5115V30.5071V30.5027V30.4983V30.4939V30.4895V30.4851V30.4807V30.4763V30.472V30.4676V30.4632V30.4588V30.4544V30.45V30.4456V30.4412V30.4368V30.4324V30.4281V30.4237V30.4218C37.0513 29.0452 40.2498 29.0452 42.95 30.4218V31.5642Z" fill="white" stroke="white"/>
<path d="M42.95 27.8147C40.2174 26.5833 37.0838 26.5833 34.3511 27.8147V27.812V27.8076V27.8032V27.7988V27.7944V27.79V27.7856V27.7812V27.7768V27.7724V27.768V27.7636V27.7592V27.7548V27.7504V27.746V27.7417V27.7373V27.7329V27.7285V27.7241V27.7197V27.7153V27.7109V27.7065V27.7021V27.6977V27.6933V27.6889V27.6845V27.6801V27.6757V27.6713V27.6669V27.6625V27.6581V27.6537V27.6493V27.6449V27.6405V27.6361V27.6317V27.6273V27.6229V27.6185V27.6141V27.6097V27.6053V27.6009V27.5965V27.5922V27.5878V27.5834V27.579V27.5746V27.5702V27.5658V27.5614V27.557V27.5526V27.5482V27.5438V27.5394V27.535V27.5306V27.5262V27.5218V27.5174V27.513V27.5086V27.5042V27.4998V27.4955V27.4911V27.4867V27.4823V27.4779V27.4735V27.4691V27.4647V27.4603V27.4559V27.4515V27.4471V27.4427V27.4383V27.4339V27.4295V27.4251V27.4207V27.4163V27.412V27.4076V27.4032V27.3988V27.3944V27.39V27.3856V27.3812V27.3768V27.3724V27.368V27.3636V27.3592V27.3548V27.3504V27.346V27.3416V27.3373V27.3329V27.3285V27.3241V27.3197V27.3153V27.3109V27.3065V27.3021V27.2977V27.2933V27.2889V27.2845V27.2801V27.2757V27.2714V27.267V27.2626V27.2582V27.2538V27.2494V27.245V27.2406V27.2362V27.2318V27.2274V27.223V27.2186V27.2142V27.2099V27.2055V27.2011V27.1967V27.1923V27.1879V27.1835V27.1791V27.1747V27.1703V27.1659V27.1615V27.1571V27.1528V27.1484V27.144V27.1396V27.1352V27.1308V27.1264V27.122V27.1176V27.1132V27.1088V27.1044V27.1V27.0957V27.0913V27.0869V27.0825V27.0781V27.0737V27.0693V27.0649V27.0605V27.0561V27.0517V27.0473V27.043V27.0386V27.0342V27.0298V27.0254V27.021V27.0166V27.0122V27.0078V27.0034V26.999V26.9947V26.9903V26.9859V26.9815V26.9771V26.9727V26.9683V26.9639V26.9595V26.9551V26.9507V26.9464V26.942V26.9376V26.9332V26.9288V26.9244V26.92V26.9156V26.9112V26.9068V26.9024V26.8981V26.8937V26.8893V26.8849V26.8805V26.8761V26.8717V26.8673V26.8629V26.8585V26.8541V26.8498V26.8454V26.841V26.8366V26.8322V26.8278V26.8234V26.819V26.8146V26.8102V26.8059V26.8015V26.7971V26.7927V26.7883V26.7839V26.7795V26.7751V26.7707V26.7663V26.7619V26.7576V26.7532V26.7488V26.7444V26.74V26.7356V26.7312V26.7268V26.7224V26.718V26.7137V26.7093V26.7049V26.7005V26.6961V26.6917V26.6873V26.6829V26.6785V26.6741V26.6722C37.0513 25.2957 40.2498 25.2957 42.95 26.6722V27.8147Z" fill="white" stroke="white"/>
<path d="M42.95 24.069C40.2174 22.8376 37.0838 22.8376 34.3511 24.069V24.0664V24.062V24.0576V24.0532V24.0488V24.0444V24.04V24.0356V24.0312V24.0268V24.0224V24.018V24.0136V24.0092V24.0048V24.0004V23.996V23.9916V23.9872V23.9828V23.9784V23.974V23.9696V23.9652V23.9608V23.9564V23.952V23.9476V23.9432V23.9388V23.9344V23.93V23.9256V23.9212V23.9168V23.9124V23.908V23.9036V23.8992V23.8948V23.8905V23.8861V23.8817V23.8773V23.8729V23.8685V23.8641V23.8597V23.8553V23.8509V23.8465V23.8421V23.8377V23.8333V23.8289V23.8245V23.8201V23.8157V23.8113V23.8069V23.8025V23.7981V23.7937V23.7893V23.7849V23.7806V23.7762V23.7718V23.7674V23.763V23.7586V23.7542V23.7498V23.7454V23.741V23.7366V23.7322V23.7278V23.7234V23.719V23.7146V23.7102V23.7058V23.7014V23.697V23.6927V23.6883V23.6839V23.6795V23.6751V23.6707V23.6663V23.6619V23.6575V23.6531V23.6487V23.6443V23.6399V23.6355V23.6311V23.6267V23.6223V23.6179V23.6136V23.6092V23.6048V23.6004V23.596V23.5916V23.5872V23.5828V23.5784V23.574V23.5696V23.5652V23.5608V23.5564V23.552V23.5477V23.5433V23.5389V23.5345V23.5301V23.5257V23.5213V23.5169V23.5125V23.5081V23.5037V23.4993V23.4949V23.4905V23.4862V23.4818V23.4774V23.473V23.4686V23.4642V23.4598V23.4554V23.451V23.4466V23.4422V23.4378V23.4334V23.429V23.4247V23.4203V23.4159V23.4115V23.4071V23.4027V23.3983V23.3939V23.3895V23.3851V23.3807V23.3763V23.3719V23.3676V23.3632V23.3588V23.3544V23.35V23.3456V23.3412V23.3368V23.3324V23.328V23.3236V23.3192V23.3149V23.3105V23.3061V23.3017V23.2973V23.2929V23.2885V23.2841V23.2797V23.2753V23.2709V23.2666V23.2622V23.2578V23.2534V23.249V23.2446V23.2402V23.2358V23.2314V23.227V23.2226V23.2182V23.2139V23.2095V23.2051V23.2007V23.1963V23.1919V23.1875V23.1831V23.1787V23.1743V23.1699V23.1656V23.1612V23.1568V23.1524V23.148V23.1436V23.1392V23.1348V23.1304V23.126V23.1217V23.1173V23.1129V23.1085V23.1041V23.0997V23.0953V23.0909V23.0865V23.0821V23.0777V23.0734V23.069V23.0646V23.0602V23.0558V23.0514V23.047V23.0426V23.0382V23.0338V23.0295V23.0251V23.0207V23.0163V23.0119V23.0075V23.0031V22.9987V22.9943V22.9899V22.9856V22.9812V22.9768V22.9724V22.968V22.9636V22.9592V22.9548V22.9504V22.946V22.9417V22.9373V22.9329V22.9285V22.9266C37.0513 21.5501 40.2498 21.5501 42.95 22.9266V24.069Z" fill="white" stroke="white"/>
<path d="M42.95 20.3194C40.2174 19.0881 37.0838 19.0881 34.3511 20.3194V20.3168V20.3124V20.308V20.3036V20.2992V20.2948V20.2904V20.286V20.2816V20.2772V20.2728V20.2684V20.264V20.2596V20.2552V20.2508V20.2464V20.242V20.2376V20.2332V20.2289V20.2245V20.2201V20.2157V20.2113V20.2069V20.2025V20.1981V20.1937V20.1893V20.1849V20.1805V20.1761V20.1717V20.1673V20.1629V20.1585V20.1541V20.1497V20.1453V20.1409V20.1365V20.1321V20.1277V20.1233V20.1189V20.1145V20.1101V20.1057V20.1013V20.0969V20.0925V20.0882V20.0838V20.0794V20.075V20.0706V20.0662V20.0618V20.0574V20.053V20.0486V20.0442V20.0398V20.0354V20.031V20.0266V20.0222V20.0178V20.0134V20.009V20.0046V20.0002V19.9958V19.9915V19.9871V19.9827V19.9783V19.9739V19.9695V19.9651V19.9607V19.9563V19.9519V19.9475V19.9431V19.9387V19.9343V19.9299V19.9255V19.9211V19.9167V19.9123V19.908V19.9036V19.8992V19.8948V19.8904V19.886V19.8816V19.8772V19.8728V19.8684V19.864V19.8596V19.8552V19.8508V19.8464V19.842V19.8377V19.8333V19.8289V19.8245V19.8201V19.8157V19.8113V19.8069V19.8025V19.7981V19.7937V19.7893V19.7849V19.7805V19.7761V19.7718V19.7674V19.763V19.7586V19.7542V19.7498V19.7454V19.741V19.7366V19.7322V19.7278V19.7234V19.719V19.7146V19.7103V19.7059V19.7015V19.6971V19.6927V19.6883V19.6839V19.6795V19.6751V19.6707V19.6663V19.6619V19.6575V19.6532V19.6488V19.6444V19.64V19.6356V19.6312V19.6268V19.6224V19.618V19.6136V19.6092V19.6048V19.6004V19.5961V19.5917V19.5873V19.5829V19.5785V19.5741V19.5697V19.5653V19.5609V19.5565V19.5521V19.5477V19.5434V19.539V19.5346V19.5302V19.5258V19.5214V19.517V19.5126V19.5082V19.5038V19.4994V19.4951V19.4907V19.4863V19.4819V19.4775V19.4731V19.4687V19.4643V19.4599V19.4555V19.4511V19.4468V19.4424V19.438V19.4336V19.4292V19.4248V19.4204V19.416V19.4116V19.4072V19.4028V19.3985V19.3941V19.3897V19.3853V19.3809V19.3765V19.3721V19.3677V19.3633V19.3589V19.3545V19.3502V19.3458V19.3414V19.337V19.3326V19.3282V19.3238V19.3194V19.315V19.3106V19.3063V19.3019V19.2975V19.2931V19.2887V19.2843V19.2799V19.2755V19.2711V19.2667V19.2624V19.258V19.2536V19.2492V19.2448V19.2404V19.236V19.2316V19.2272V19.2228V19.2185V19.2141V19.2097V19.2053V19.2009V19.1965V19.1921V19.1877V19.1833V19.1789V19.177C37.0513 17.8005 40.2498 17.8005 42.95 19.177V20.3194Z" fill="white" stroke="white"/>
<path d="M42.95 16.5699C40.2174 15.3386 37.0838 15.3386 34.3511 16.5699V16.5673V16.5629V16.5585V16.5541V16.5497V16.5453V16.5409V16.5365V16.5321V16.5277V16.5233V16.5189V16.5145V16.5101V16.5057V16.5013V16.4969V16.4925V16.4881V16.4837V16.4793V16.4749V16.4705V16.4661V16.4617V16.4574V16.453V16.4486V16.4442V16.4398V16.4354V16.431V16.4266V16.4222V16.4178V16.4134V16.409V16.4046V16.4002V16.3958V16.3914V16.387V16.3826V16.3782V16.3738V16.3694V16.365V16.3606V16.3562V16.3518V16.3474V16.343V16.3386V16.3342V16.3298V16.3255V16.3211V16.3167V16.3123V16.3079V16.3035V16.2991V16.2947V16.2903V16.2859V16.2815V16.2771V16.2727V16.2683V16.2639V16.2595V16.2551V16.2507V16.2463V16.2419V16.2375V16.2331V16.2288V16.2244V16.22V16.2156V16.2112V16.2068V16.2024V16.198V16.1936V16.1892V16.1848V16.1804V16.176V16.1716V16.1672V16.1628V16.1584V16.154V16.1497V16.1453V16.1409V16.1365V16.1321V16.1277V16.1233V16.1189V16.1145V16.1101V16.1057V16.1013V16.0969V16.0925V16.0881V16.0837V16.0794V16.075V16.0706V16.0662V16.0618V16.0574V16.053V16.0486V16.0442V16.0398V16.0354V16.031V16.0266V16.0222V16.0178V16.0135V16.0091V16.0047V16.0003V15.9959V15.9915V15.9871V15.9827V15.9783V15.9739V15.9695V15.9651V15.9607V15.9563V15.952V15.9476V15.9432V15.9388V15.9344V15.93V15.9256V15.9212V15.9168V15.9124V15.908V15.9036V15.8992V15.8949V15.8905V15.8861V15.8817V15.8773V15.8729V15.8685V15.8641V15.8597V15.8553V15.8509V15.8465V15.8422V15.8378V15.8334V15.829V15.8246V15.8202V15.8158V15.8114V15.807V15.8026V15.7982V15.7938V15.7895V15.7851V15.7807V15.7763V15.7719V15.7675V15.7631V15.7587V15.7543V15.7499V15.7455V15.7411V15.7368V15.7324V15.728V15.7236V15.7192V15.7148V15.7104V15.706V15.7016V15.6972V15.6928V15.6885V15.6841V15.6797V15.6753V15.6709V15.6665V15.6621V15.6577V15.6533V15.6489V15.6445V15.6402V15.6358V15.6314V15.627V15.6226V15.6182V15.6138V15.6094V15.605V15.6006V15.5963V15.5919V15.5875V15.5831V15.5787V15.5743V15.5699V15.5655V15.5611V15.5567V15.5524V15.548V15.5436V15.5392V15.5348V15.5304V15.526V15.5216V15.5172V15.5128V15.5084V15.5041V15.4997V15.4953V15.4909V15.4865V15.4821V15.4777V15.4733V15.4689V15.4645V15.4602V15.4558V15.4514V15.447V15.4426V15.4382V15.4338V15.4294V15.4275C37.0513 14.051 40.2498 14.051 42.95 15.4275V16.5699Z" fill="white" stroke="white"/>
<path d="M33.0787 34.93V107.242C33.0787 107.355 33.0942 107.471 33.1252 107.58L38.7418 127.993L44.3583 107.58C44.3894 107.471 44.4049 107.355 44.4049 107.242V34.93C44.4049 33.9247 43.5743 33.1096 42.5534 33.1096H34.9301C33.9093 33.1096 33.0787 33.9247 33.0787 34.93Z" stroke="white" stroke-miterlimit="10"/>
<mask id="path-21-inside-1_58_447" fill="white">
<path d="M38.8427 40.6707L38.6486 114.101L38.4546 40.6707C38.4546 40.4339 38.8388 40.399 38.8427 40.6707Z"/>
</mask>
<path d="M38.8427 40.6707L38.6486 114.101L38.4546 40.6707C38.4546 40.4339 38.8388 40.399 38.8427 40.6707Z" fill="white"/>
<path d="M38.8427 40.6707L39.8427 40.6733L39.8427 40.6649L39.8426 40.6564L38.8427 40.6707ZM38.6486 114.101L37.6486 114.104H39.6486L38.6486 114.101ZM38.4546 40.6707H37.4545L37.4546 40.6733L38.4546 40.6707ZM37.8427 40.6681L37.6486 114.098L39.6486 114.104L39.8427 40.6733L37.8427 40.6681ZM39.6486 114.098L39.4545 40.6681L37.4546 40.6733L37.6486 114.104L39.6486 114.098ZM39.4546 40.6707C39.4546 41.224 38.9815 41.4659 38.6924 41.479C38.5309 41.4863 38.3182 41.4431 38.131 41.2832C37.9244 41.1068 37.8455 40.8708 37.8428 40.685L39.8426 40.6564C39.838 40.3347 39.7095 40.0012 39.4299 39.7624C39.1695 39.54 38.86 39.4694 38.602 39.481C38.1197 39.5029 37.4546 39.8806 37.4546 40.6707H39.4546Z" fill="white" mask="url(#path-21-inside-1_58_447)"/>
</g>
<path d="M45.4404 66.8023C48.9255 63.7942 56.5269 60.3098 54.7856 44H22V89.0978L24.7177 98H56.5293C56.5293 98 60.4884 73.7711 45.4427 66.8046L45.4404 66.8023ZM34.1943 50.8092H42.7462C42.9034 65.2185 34.1943 63.0035 34.1943 63.0035V50.8092ZM44.3303 92.2983H34.1943V69.3364C49.8736 75.6717 44.3303 92.2983 44.3303 92.2983Z" fill="#267DC9" stroke="white" stroke-miterlimit="10" stroke-linecap="round"/>
</g>
<defs>
<filter id="filter0_d_58_447" x="-4.50016" y="0" width="86.5111" height="145.878" filterUnits="userSpaceOnUse" color-interpolation-filters="sRGB">
<feFlood flood-opacity="0" result="BackgroundImageFix"/>
<feColorMatrix in="SourceAlpha" type="matrix" values="0 0 0 0 0 0 0 0 0 0 0 0 0 0 0 0 0 0 127 0" result="hardAlpha"/>
<feOffset dy="4"/>
<feGaussianBlur stdDeviation="6"/>
<feComposite in2="hardAlpha" operator="out"/>
<feColorMatrix type="matrix" values="0 0 0 0 1 0 0 0 0 1 0 0 0 0 1 0 0 0 1 0"/>
<feBlend mode="normal" in2="BackgroundImageFix" result="effect1_dropShadow_58_447"/>
<feBlend mode="normal" in="SourceGraphic" in2="effect1_dropShadow_58_447" result="shape"/>
</filter>
<clipPath id="clip0_58_447">
<path d="M0 0H77.5107V127.993C77.5107 132.411 73.929 135.993 69.5107 135.993H8C3.58172 135.993 0 132.411 0 127.993V0Z" fill="white"/>
</clipPath>
</defs>
</svg>
