<svg width="800" height="190" viewBox="0 0 800 190" fill="none" xmlns="http://www.w3.org/2000/svg">
<g clip-path="url(#clip0_93_411)">
<path d="M488.1 -0.0666504C462.877 -0.0578606 438.688 9.95664 420.84 27.7794C402.993 45.6021 392.944 69.7772 392.9 95C393.701 119.71 404.08 143.14 421.843 160.337C439.606 177.533 463.36 187.148 488.083 187.148C512.806 187.148 536.561 177.533 554.324 160.337C572.086 143.14 582.466 119.71 583.267 95C583.231 69.7803 573.19 45.6051 555.348 27.7814C537.506 9.95772 513.32 -0.0578447 488.1 -0.0666504ZM160.8 0.133367C138.704 0.133339 117.511 8.90177 101.874 24.5135C86.2377 40.1252 77.4353 61.3041 77.4 83.4V181.867C77.4 184.8 79.8 187.2 82.7333 187.2H115.167C116.581 187.2 117.938 186.638 118.938 185.638C119.938 184.638 120.5 183.281 120.5 181.867V83.4C120.923 72.9954 125.354 63.1577 132.866 55.9456C140.377 48.7336 150.387 44.7061 160.8 44.7061C171.213 44.7061 181.223 48.7336 188.734 55.9456C196.246 63.1577 200.677 72.9954 201.1 83.4V181.867C201.1 184.8 203.533 187.2 206.5 187.2H238.867C240.287 187.2 241.651 186.64 242.662 185.642C243.672 184.644 244.249 183.287 244.267 181.867V83.4C244.69 72.9954 249.121 63.1577 256.632 55.9456C264.144 48.7336 274.153 44.7061 284.567 44.7061C294.98 44.7061 304.99 48.7336 312.501 55.9456C320.012 63.1577 324.443 72.9954 324.867 83.4V181.867C324.867 184.8 327.233 187.2 330.2 187.2H362.633C364.048 187.2 365.404 186.638 366.405 185.638C367.405 184.638 367.967 183.281 367.967 181.867V83.4C367.931 61.3041 359.129 40.1252 343.492 24.5135C327.856 8.90177 306.663 0.133339 284.567 0.133367C260 0.133367 238 10.8334 222.733 27.7334C214.924 19.0459 205.373 12.0988 194.703 7.34378C184.033 2.58872 172.482 0.132033 160.8 0.133367ZM5.33333 4.50002C3.91885 4.50002 2.56229 5.06191 1.5621 6.06211C0.561903 7.0623 0 8.41886 0 9.83335L0 181.833C0 184.833 2.36667 187.167 5.33333 187.167H37.4333C38.1381 187.171 38.8368 187.037 39.4896 186.771C40.1424 186.505 40.7365 186.114 41.2379 185.618C41.7394 185.123 42.1383 184.534 42.4121 183.885C42.6858 183.235 42.829 182.538 42.8333 181.833V9.83335C42.8158 8.41276 42.2391 7.05633 41.2283 6.058C40.2175 5.05968 38.854 4.49991 37.4333 4.50002H5.33333ZM615 4.50002C614.292 4.49122 613.59 4.62243 612.933 4.8861C612.277 5.14977 611.679 5.5407 611.174 6.03639C610.669 6.53207 610.267 7.12273 609.991 7.77436C609.715 8.426 609.571 9.12575 609.567 9.83335V58.1667C609.567 61.1334 612 63.5 614.967 63.5H647.067C648.481 63.5 649.838 62.9381 650.838 61.9379C651.838 60.9377 652.4 59.5812 652.4 58.1667V9.83335C652.4 8.41886 651.838 7.0623 650.838 6.06211C649.838 5.06191 648.481 4.50002 647.067 4.50002H614.967H615ZM762.567 4.50002C761.862 4.49563 761.163 4.63011 760.51 4.89576C759.858 5.16141 759.263 5.55303 758.762 6.04828C758.261 6.54353 757.862 7.13271 757.588 7.78215C757.314 8.4316 757.171 9.12858 757.167 9.83335V58.1667C757.167 61.1334 759.6 63.5 762.567 63.5H794.667C796.081 63.5 797.438 62.9381 798.438 61.9379C799.438 60.9377 800 59.5812 800 58.1667V9.83335C800 8.41886 799.438 7.0623 798.438 6.06211C797.438 5.06191 796.081 4.50002 794.667 4.50002H762.567ZM488.1 42.7334C516.967 42.7334 540.433 66.1667 540.433 95C540.433 108.893 534.914 122.217 525.091 132.041C515.267 141.864 501.943 147.383 488.05 147.383C474.157 147.383 460.833 141.864 451.009 132.041C441.186 122.217 435.667 108.893 435.667 95C435.667 66.1667 459.2 42.7334 488.1 42.7334ZM614.967 84.6667C613.546 84.6666 612.182 85.2263 611.172 86.2247C610.161 87.223 609.584 88.5794 609.567 90V92.6667C609.567 144.133 649.567 188.033 701.1 190C713.891 190.488 726.648 188.394 738.611 183.842C750.575 179.29 761.498 172.374 770.729 163.507C779.96 154.64 787.31 144.004 792.339 132.234C797.368 120.463 799.973 107.8 800 95V90C800 88.5855 799.438 87.229 798.438 86.2288C797.438 85.2286 796.081 84.6667 794.667 84.6667H762.567C761.146 84.6666 759.782 85.2263 758.772 86.2247C757.761 87.223 757.184 88.5794 757.167 90V95C757.167 108.893 751.648 122.217 741.824 132.041C732 141.864 718.676 147.383 704.783 147.383C690.89 147.383 677.566 141.864 667.743 132.041C657.919 122.217 652.4 108.893 652.4 95V90C652.4 88.5855 651.838 87.229 650.838 86.2288C649.838 85.2286 648.481 84.6667 647.067 84.6667H614.967Z" fill="#F6B04E"/>
</g>
<defs>
<clipPath id="clip0_93_411">
<rect width="800" height="190" fill="white"/>
</clipPath>
</defs>
</svg>
