<svg width="40" height="40" viewBox="0 0 40 40" fill="none" xmlns="http://www.w3.org/2000/svg">
<path d="M14.2694 12.4364C16.7426 12.4364 18.7475 10.271 18.7475 7.6C18.7475 4.92895 16.7426 2.76364 14.2694 2.76364C11.7962 2.76364 9.79125 4.92895 9.79125 7.6C9.79125 10.271 11.7962 12.4364 14.2694 12.4364Z" fill="#965EEB"/>
<path d="M29.9596 21.0473C35.3411 21.0473 39.7037 16.3357 39.7037 10.5236C39.7037 4.71159 35.3411 0 29.9596 0C24.5781 0 20.2155 4.71159 20.2155 10.5236C20.2155 16.3357 24.5781 21.0473 29.9596 21.0473Z" fill="#00AAFF"/>
<path d="M11.9865 40C18.6065 40 23.9731 34.2041 23.9731 27.0545C23.9731 19.905 18.6065 14.1091 11.9865 14.1091C5.36655 14.1091 0 19.905 0 27.0545C0 34.2041 5.36655 40 11.9865 40Z" fill="#04E061"/>
<path d="M32.7609 38.3709C36.759 38.3709 40 34.8706 40 30.5527C40 26.2349 36.759 22.7345 32.7609 22.7345C28.7629 22.7345 25.5219 26.2349 25.5219 30.5527C25.5219 34.8706 28.7629 38.3709 32.7609 38.3709Z" fill="#FF4053"/>
</svg>
