<svg width="39" height="33" viewBox="0 0 39 33" fill="none" xmlns="http://www.w3.org/2000/svg">
<path d="M3.9 32.1C2.8275 32.1 1.90905 31.7178 1.14465 30.9534C0.380253 30.189 -0.00129669 29.2712 3.3107e-06 28.2V4.80003C3.3107e-06 3.72753 0.382203 2.80908 1.1466 2.04468C1.911 1.28028 2.8288 0.898728 3.9 0.900028H35.1C36.1725 0.900028 37.0909 1.28223 37.8553 2.04663C38.6197 2.81103 39.0013 3.72883 39 4.80003V28.2C39 29.2725 38.6178 30.191 37.8534 30.9554C37.089 31.7198 36.1712 32.1013 35.1 32.1H3.9ZM35.1 8.70003L20.5237 17.8163C20.3612 17.9138 20.1903 17.9872 20.0109 18.0366C19.8315 18.086 19.6612 18.1101 19.5 18.1088C19.3375 18.1088 19.1665 18.0847 18.9872 18.0366C18.8078 17.9885 18.6375 17.9151 18.4762 17.8163L3.9 8.70003V28.2H35.1V8.70003ZM19.5 14.55L35.1 4.80003H3.9L19.5 14.55ZM3.9 9.18753V6.31128V6.36003V6.33663V9.18753Z" fill="#267DC9"/>
</svg>
