<svg width="39" height="34" viewBox="0 0 39 34" fill="none" xmlns="http://www.w3.org/2000/svg">
<path d="M0 5.52433C0 4.29788 0.491616 3.12167 1.3667 2.25446C2.24178 1.38723 3.42864 0.900024 4.6662 0.900024H32.6634C33.901 0.900024 35.0878 1.38723 35.9629 2.25446C36.838 3.12167 37.3296 4.29788 37.3296 5.52433V11.7116C37.0868 11.5886 36.8366 11.4805 36.5803 11.3879L36.5537 11.3774L36.2404 11.2743L35.2578 10.981C35.0628 10.9225 34.8642 10.8766 34.6632 10.8436V5.52433C34.6632 4.99872 34.4526 4.49461 34.0775 4.12295C33.7025 3.75129 33.1937 3.54248 32.6634 3.54248H4.6662C4.13583 3.54248 3.62716 3.75129 3.25213 4.12295C2.8771 4.49461 2.6664 4.99872 2.6664 5.52433V22.7003C2.6664 23.2259 2.8771 23.7301 3.25213 24.1017C3.62716 24.4734 4.13583 24.6822 4.6662 24.6822H10.6656V22.0397C10.6656 21.3389 10.9465 20.6668 11.4466 20.1712C11.9466 19.6756 12.6248 19.3972 13.332 19.3972H23.9976C24.7047 19.3972 25.3829 19.6756 25.883 20.1712C26.3831 20.6668 26.664 21.3389 26.664 22.0397V23.2011C26.0955 23.2001 25.5333 23.3192 25.015 23.5504C24.4966 23.7817 24.0339 24.1197 23.6576 24.5421L23.6256 24.5791L23.443 24.8064L21.6085 27.3246H4.6662C3.42864 27.3246 2.24178 26.8375 1.3667 25.9702C0.491616 25.103 0 23.9268 0 22.7003V5.52433ZM23.9976 11.4699C23.9976 12.8715 23.4358 14.2158 22.4356 15.2068C21.4356 16.198 20.0792 16.7548 18.6648 16.7548C17.2504 16.7548 15.894 16.198 14.894 15.2068C13.8938 14.2158 13.332 12.8715 13.332 11.4699C13.332 10.0682 13.8938 8.72398 14.894 7.73286C15.894 6.74175 17.2504 6.18494 18.6648 6.18494C20.0792 6.18494 21.4356 6.74175 22.4356 7.73286C23.4358 8.72398 23.9976 10.0682 23.9976 11.4699ZM31.5782 14.1282C31.8733 13.5999 32.3422 13.1878 32.9067 12.9604C33.4711 12.7329 34.0971 12.704 34.6805 12.8783L35.6364 13.1637L35.8924 13.2482C36.6842 13.5353 37.3828 14.0297 37.9138 14.6787C38.4448 15.3279 38.7884 16.1074 38.9081 16.9345C39.3041 19.6668 38.4188 22.8615 36.2844 26.5253C34.1552 30.1798 31.8115 32.5342 29.2317 33.5648C28.4029 33.8959 27.4955 33.984 26.6175 33.819C25.7394 33.6538 24.9278 33.2423 24.2789 32.6333L23.5563 31.9542L23.3937 31.7877C22.9918 31.3384 22.7564 30.7668 22.726 30.1671C22.6957 29.5675 22.8725 28.9755 23.227 28.4886L25.0362 26.0047L25.1575 25.8541C25.4116 25.5687 25.7432 25.3619 26.1127 25.2583C26.4823 25.1549 26.874 25.1589 27.2413 25.2701L29.9757 26.0985L30.0463 26.1117H30.1037C30.4303 26.0761 31.0942 25.422 31.9101 24.0215C32.8167 22.4651 33.0034 21.5548 32.7541 21.3196L31.3635 20.0354L31.1862 19.8597C30.7436 19.3843 30.4516 18.7904 30.347 18.1518C30.2422 17.5134 30.3291 16.8585 30.5969 16.2686L31.4795 14.325L31.5782 14.1282Z" fill="#00BF08"/>
</svg>
