<svg width="39" height="37" viewBox="0 0 39 37" fill="none" xmlns="http://www.w3.org/2000/svg">
<path d="M18.5789 28.6834L13.0526 25.9334M13.0526 25.9334L2 31.4334V7.60004L13.0526 2.10004M13.0526 25.9334V2.10004M13.0526 2.10004L24.1053 7.60004M24.1053 7.60004L35.1579 2.10004V15.85M24.1053 7.60004V17.6834M31.4737 27.7667V27.785M35.3808 31.6552C36.1537 30.8861 36.6804 29.906 36.8937 28.8392C37.107 27.7722 36.9978 26.6662 36.5794 25.6611C36.1613 24.6561 35.453 23.797 34.5441 23.1925C33.6352 22.5881 32.5668 22.2656 31.4737 22.2656C30.3806 22.2656 29.3122 22.5881 28.4033 23.1925C27.4944 23.797 26.7861 24.6561 26.3679 25.6611C25.9496 26.6662 25.8403 27.7722 26.0537 28.8392C26.267 29.906 26.7936 30.8861 27.5666 31.6552C28.3366 32.4234 29.6389 33.571 31.4737 35.1C33.4097 33.4684 34.7139 32.3207 35.3808 31.6552Z" stroke="#8E0E34" stroke-width="3" stroke-linecap="round" stroke-linejoin="round"/>
</svg>
