<svg width="37" height="33" viewBox="0 0 37 33" fill="none" xmlns="http://www.w3.org/2000/svg">
<path d="M32.8889 0.900024C33.9792 0.900024 35.0248 1.32145 35.7959 2.0716C36.5669 2.82174 37 3.83916 37 4.90002V28.9C37 29.9608 36.5669 30.9782 35.7959 31.7284C35.0248 32.4786 33.9792 32.9 32.8889 32.9H4.11111C3.02078 32.9 1.9751 32.4786 1.20412 31.7284C0.433134 30.9782 0 29.9608 0 28.9V4.90002C0 3.83916 0.433134 2.82174 1.20412 2.0716C1.9751 1.32145 3.02078 0.900024 4.11111 0.900024H32.8889ZM32.8889 12.9H4.11111V26.9C4.11117 27.3898 4.29603 27.8626 4.63059 28.2288C4.96513 28.5948 5.42615 28.8286 5.92617 28.886L6.16667 28.9H30.8333C31.3367 28.9 31.8227 28.72 32.199 28.3946C32.5752 28.069 32.8155 27.6206 32.8745 27.134L32.8889 26.9V12.9ZM6.16667 4.90002C5.62149 4.90002 5.09866 5.11074 4.71316 5.4858C4.32768 5.86088 4.11111 6.36958 4.11111 6.90002C4.11111 7.43046 4.32768 7.93916 4.71316 8.31424C5.09866 8.6893 5.62149 8.90002 6.16667 8.90002C6.71184 8.90002 7.23467 8.6893 7.62017 8.31424C8.00565 7.93916 8.22222 7.43046 8.22222 6.90002C8.22222 6.36958 8.00565 5.86088 7.62017 5.4858C7.23467 5.11074 6.71184 4.90002 6.16667 4.90002ZM12.3333 4.90002C11.7882 4.90002 11.2653 5.11074 10.8798 5.4858C10.4944 5.86088 10.2778 6.36958 10.2778 6.90002C10.2778 7.43046 10.4944 7.93916 10.8798 8.31424C11.2653 8.6893 11.7882 8.90002 12.3333 8.90002C12.8785 8.90002 13.4013 8.6893 13.7868 8.31424C14.1723 7.93916 14.3889 7.43046 14.3889 6.90002C14.3889 6.36958 14.1723 5.86088 13.7868 5.4858C13.4013 5.11074 12.8785 4.90002 12.3333 4.90002ZM18.5 4.90002C17.9548 4.90002 17.432 5.11074 17.0465 5.4858C16.661 5.86088 16.4444 6.36958 16.4444 6.90002C16.4444 7.43046 16.661 7.93916 17.0465 8.31424C17.432 8.6893 17.9548 8.90002 18.5 8.90002C19.0452 8.90002 19.568 8.6893 19.9535 8.31424C20.339 7.93916 20.5556 7.43046 20.5556 6.90002C20.5556 6.36958 20.339 5.86088 19.9535 5.4858C19.568 5.11074 19.0452 4.90002 18.5 4.90002Z" fill="#267DC9"/>
</svg>
