<svg width="40" height="34" viewBox="0 0 40 34" fill="none" xmlns="http://www.w3.org/2000/svg">
<path d="M36.5898 0.62759C36.5898 0.62759 40.2901 -0.815269 39.9817 2.68882C39.879 4.1317 38.9539 9.1817 38.2344 14.644L35.7675 30.8247C35.7675 30.8247 35.562 33.1951 33.7118 33.6073C31.8616 34.0195 29.0865 32.1645 28.5725 31.7522C28.1613 31.4431 20.8636 26.8052 18.2939 24.5379C17.5744 23.9195 16.7521 22.6828 18.3967 21.2399L29.1893 10.9338C30.4227 9.69704 31.6561 6.81132 26.5168 10.3154L12.1268 20.1063C12.1268 20.1063 10.4822 21.1369 7.39867 20.2093L0.717544 18.1481C0.717544 18.1481 -1.74932 16.6022 2.46491 15.0562C12.7435 10.2123 25.3862 5.26532 36.5898 0.62759Z" fill="#00AAFF"/>
</svg>
