<svg width="182" height="42" viewBox="0 0 182 42" fill="none" xmlns="http://www.w3.org/2000/svg">
<path d="M26.767 25.1987C25.9175 24.3601 24.8571 24.3601 24.0131 25.1987C23.3692 25.8371 22.7254 26.4755 22.0924 27.1248C21.9192 27.3033 21.7731 27.3412 21.5621 27.2222C21.1455 26.9949 20.7019 26.811 20.3015 26.5621C18.4349 25.388 16.8713 23.8785 15.4862 22.1796C14.7991 21.3356 14.1877 20.4321 13.7603 19.4149C13.6737 19.2093 13.6899 19.074 13.8576 18.9063C14.5015 18.2841 15.1291 17.6457 15.7621 17.0073C16.644 16.1199 16.644 15.0811 15.7567 14.1884C15.2535 13.6798 14.7504 13.1821 14.2472 12.6735C13.7278 12.1541 13.2138 11.6293 12.689 11.1153C11.8396 10.2875 10.7791 10.2875 9.93507 11.1207C9.28582 11.7591 8.66362 12.4138 8.00354 13.0414C7.39216 13.6203 7.08377 14.3291 7.01884 15.1569C6.91604 16.5041 7.24608 17.7755 7.71138 19.0145C8.66362 21.5791 10.1136 23.8569 11.872 25.9453C14.2472 28.7696 17.0823 31.0041 20.3989 32.6164C21.8922 33.3414 23.4396 33.8987 25.1222 33.9907C26.28 34.0556 27.2864 33.7634 28.0925 32.8599C28.6444 32.2431 29.2666 31.6804 29.8509 31.0907C30.7166 30.2142 30.722 29.1537 29.8618 28.288C28.8338 27.2546 27.8004 26.2267 26.767 25.1987Z" fill="white"/>
<path d="M25.7339 20.8882L27.7304 20.5473C27.4166 18.7132 26.5509 17.0521 25.2361 15.732C23.8457 14.3415 22.0873 13.465 20.1503 13.1945L19.869 15.2018C21.3677 15.4128 22.7311 16.0891 23.8078 17.1658C24.825 18.1829 25.4904 19.4706 25.7339 20.8882Z" fill="white"/>
<path d="M28.8556 12.2093C26.5507 9.90448 23.6345 8.44907 20.4153 8L20.134 10.0073C22.9149 10.3968 25.4362 11.6575 27.4272 13.6431C29.3155 15.5313 30.5545 17.9174 31.0035 20.5414L33 20.2006C32.4752 17.1599 31.0414 14.4006 28.8556 12.2093Z" fill="white"/>
<rect x="0.5" y="1.5" width="39" height="39" rx="7.5" stroke="white"/>
<path d="M58.48 15H57.12V5.08H51.04V15H49.68V3.8H58.48V15ZM61.8843 14.104C61.1803 13.3787 60.8283 12.4773 60.8283 11.4C60.8283 10.312 61.1803 9.416 61.8843 8.712C62.5989 7.99733 63.5269 7.64 64.6683 7.64C65.8096 7.64 66.7323 7.99733 67.4363 8.712C68.1509 9.416 68.5083 10.312 68.5083 11.4C68.5083 12.488 68.1509 13.3893 67.4363 14.104C66.7323 14.808 65.8096 15.16 64.6683 15.16C63.5376 15.16 62.6096 14.808 61.8843 14.104ZM62.8923 9.56C62.4229 10.0293 62.1883 10.6427 62.1883 11.4C62.1883 12.1573 62.4176 12.7707 62.8763 13.24C63.3456 13.72 63.9429 13.96 64.6683 13.96C65.3936 13.96 65.9856 13.7253 66.4443 13.256C66.9136 12.776 67.1483 12.1573 67.1483 11.4C67.1483 10.664 66.9136 10.0507 66.4443 9.56C65.9856 9.08 65.3936 8.84 64.6683 8.84C63.9429 8.84 63.3509 9.08 62.8923 9.56ZM72.7391 15.16C72.1951 15.16 71.6191 15.0693 71.0111 14.888C70.4245 14.696 70.0085 14.4613 69.7631 14.184L70.4191 13.224C70.7071 13.4587 71.0485 13.6507 71.4431 13.8C71.8485 13.9387 72.2165 14.008 72.5471 14.008C73.1018 14.008 73.5551 13.9013 73.9071 13.688C74.2591 13.464 74.4351 13.176 74.4351 12.824C74.4351 12.5253 74.3071 12.296 74.0511 12.136C73.8058 11.976 73.4645 11.896 73.0271 11.896H71.8111V10.856H72.9471C73.3098 10.856 73.6085 10.76 73.8431 10.568C74.0778 10.3653 74.1951 10.12 74.1951 9.832C74.1951 9.512 74.0565 9.26133 73.7791 9.08C73.5018 8.888 73.1285 8.792 72.6591 8.792C71.9018 8.792 71.1818 9.05867 70.4991 9.592L70.0031 8.6C70.2911 8.30133 70.6911 8.06667 71.2031 7.896C71.7258 7.72533 72.2751 7.64 72.8511 7.64C73.7045 7.64 74.3658 7.81067 74.8351 8.152C75.3151 8.49333 75.5551 8.968 75.5551 9.576C75.5551 10.408 75.1338 10.9733 74.2911 11.272V11.304C74.7605 11.3573 75.1285 11.544 75.3951 11.864C75.6618 12.1733 75.7951 12.552 75.7951 13C75.7951 13.6613 75.5125 14.1893 74.9471 14.584C74.3925 14.968 73.6565 15.16 72.7391 15.16ZM77.7458 15V7.8C77.7991 7.8 77.8738 7.8 77.9698 7.8C78.0658 7.78933 78.2044 7.784 78.3858 7.784C78.5671 7.77333 78.7324 7.768 78.8818 7.768C79.6711 7.74667 80.1618 7.736 80.3538 7.736C82.4231 7.736 83.4578 8.35467 83.4578 9.592C83.4578 10.0187 83.3244 10.3867 83.0578 10.696C82.7911 10.9947 82.4444 11.176 82.0178 11.24V11.272C83.1378 11.4747 83.6978 12.04 83.6978 12.968C83.6978 14.3653 82.5938 15.064 80.3858 15.064C80.2791 15.064 79.8098 15.0533 78.9778 15.032C78.8178 15.032 78.6418 15.0267 78.4498 15.016C78.2578 15.016 78.1084 15.0107 78.0018 15C77.8951 15 77.8098 15 77.7458 15ZM80.5618 11.768H79.0258V13.976C79.7938 14.008 80.2844 14.024 80.4978 14.024C81.7244 14.024 82.3378 13.64 82.3378 12.872C82.3378 12.136 81.7458 11.768 80.5618 11.768ZM80.4498 8.776C80.1404 8.776 79.6658 8.792 79.0258 8.824V10.968H80.6418C81.0791 10.968 81.4311 10.8667 81.6978 10.664C81.9644 10.4613 82.0978 10.1893 82.0978 9.848C82.0978 9.13333 81.5484 8.776 80.4498 8.776ZM86.228 14.104C85.524 13.3787 85.172 12.4773 85.172 11.4C85.172 10.312 85.524 9.416 86.228 8.712C86.9427 7.99733 87.8707 7.64 89.012 7.64C90.1533 7.64 91.076 7.99733 91.78 8.712C92.4947 9.416 92.852 10.312 92.852 11.4C92.852 12.488 92.4947 13.3893 91.78 14.104C91.076 14.808 90.1533 15.16 89.012 15.16C87.8813 15.16 86.9533 14.808 86.228 14.104ZM87.236 9.56C86.7667 10.0293 86.532 10.6427 86.532 11.4C86.532 12.1573 86.7613 12.7707 87.22 13.24C87.6893 13.72 88.2867 13.96 89.012 13.96C89.7373 13.96 90.3293 13.7253 90.788 13.256C91.2573 12.776 91.492 12.1573 91.492 11.4C91.492 10.664 91.2573 10.0507 90.788 9.56C90.3293 9.08 89.7373 8.84 89.012 8.84C88.2867 8.84 87.6947 9.08 87.236 9.56ZM101.259 15H99.9789V11.96H95.9789V15H94.6989V7.8H95.9789V10.76H99.9789V7.8H101.259V15ZM109.014 9.64L104.854 15H103.574V7.8H104.854V13.16L109.014 7.8H110.294V15H109.014V9.64ZM114.349 9.08H111.709V7.8H118.269V9.08H115.629V15H114.349V9.08ZM122.1 15H119.668V7.8H120.948V9.96H122.26C123.241 9.96 123.961 10.184 124.42 10.632C124.878 11.0693 125.108 11.672 125.108 12.44C125.108 13.1653 124.868 13.7733 124.388 14.264C123.908 14.7547 123.145 15 122.1 15ZM122.02 11.16H120.948V13.8H122.004C123.166 13.8 123.748 13.3627 123.748 12.488C123.748 11.6027 123.172 11.16 122.02 11.16ZM136.978 15H135.698V11.96H131.698V15H130.418V7.8H131.698V10.76H135.698V7.8H136.978V15ZM139.677 9.32L139.341 8.296C140.055 7.85867 140.855 7.64 141.741 7.64C142.711 7.64 143.415 7.88 143.853 8.36C144.29 8.84 144.509 9.58133 144.509 10.584V15H143.293V14.072C142.727 14.7653 141.959 15.112 140.989 15.112C140.327 15.112 139.794 14.9147 139.389 14.52C138.983 14.1147 138.781 13.5707 138.781 12.888C138.781 12.184 139.031 11.6293 139.533 11.224C140.034 10.808 140.69 10.6 141.501 10.6C142.258 10.6 142.855 10.7547 143.293 11.064C143.293 10.2533 143.181 9.672 142.957 9.32C142.733 8.968 142.301 8.792 141.661 8.792C141.01 8.792 140.349 8.968 139.677 9.32ZM141.437 13.96C142.151 13.96 142.77 13.6507 143.293 13.032V12.12C142.845 11.8 142.306 11.64 141.677 11.64C141.239 11.64 140.871 11.7467 140.573 11.96C140.285 12.1627 140.141 12.4507 140.141 12.824C140.141 13.176 140.253 13.4533 140.477 13.656C140.711 13.8587 141.031 13.96 141.437 13.96ZM147.932 15H146.652V7.8H147.82L150.588 11.368L153.212 7.8H154.348V15H153.068V9.752L150.572 13.096H150.524L147.932 9.752V15ZM52.112 30.8H49.104V29.68H52.112V26.624H53.312V29.68H56.368V30.8H53.312V33.888H52.112V30.8ZM63.1168 26.08H57.9488V24.8H64.6688V25.632L60.5408 36H59.1328L63.1168 26.08ZM73.5161 38.592L72.7001 39.296C70.5455 37.44 69.4681 35.1413 69.4681 32.4C69.4681 29.7547 70.5508 27.456 72.7161 25.504L73.5161 26.208C72.5561 27.1253 71.8521 28.0853 71.4041 29.088C70.9668 30.08 70.7481 31.184 70.7481 32.4C70.7481 33.584 70.9881 34.7147 71.4681 35.792C71.9481 36.8693 72.6308 37.8027 73.5161 38.592ZM81.5316 28.848C81.5316 30.9067 81.0036 32.592 79.9476 33.904C78.913 35.1947 77.5743 35.9467 75.9316 36.16L75.4996 35.152C76.769 34.9067 77.7983 34.3627 78.5876 33.52C79.377 32.6773 79.857 31.6053 80.0276 30.304C79.5263 31.232 78.6836 31.696 77.4996 31.696C76.5183 31.696 75.7183 31.3707 75.0996 30.72C74.4703 30.0587 74.1556 29.2373 74.1556 28.256C74.1556 27.2 74.5183 26.336 75.2436 25.664C75.9583 24.9813 76.785 24.64 77.7236 24.64C78.929 24.64 79.8623 25.0347 80.5236 25.824C81.1956 26.6133 81.5316 27.6213 81.5316 28.848ZM80.1716 28.848C80.1716 28.0267 79.9636 27.3333 79.5476 26.768C79.1316 26.2027 78.529 25.92 77.7396 25.92C77.1316 25.92 76.609 26.144 76.1716 26.592C75.7343 27.0293 75.5156 27.552 75.5156 28.16C75.5156 28.8213 75.7236 29.376 76.1396 29.824C76.5663 30.272 77.1263 30.496 77.8196 30.496C78.3956 30.496 78.8916 30.3413 79.3076 30.032C79.7236 29.7227 80.0116 29.328 80.1716 28.848ZM83.5601 27.856L82.8881 26.816L85.5761 24.736H86.4721V36H85.1921V26.576L83.5601 27.856ZM92.9506 29.6H93.3666C93.8466 29.6 94.2626 29.4187 94.6146 29.056C94.9773 28.6933 95.1586 28.2613 95.1586 27.76C95.1586 27.2053 94.9666 26.7627 94.5826 26.432C94.1986 26.0907 93.7133 25.92 93.1266 25.92C92.5506 25.92 92.076 26.0907 91.7026 26.432C91.3293 26.7733 91.1426 27.216 91.1426 27.76C91.1426 28.2613 91.324 28.6933 91.6866 29.056C92.0493 29.4187 92.4706 29.6 92.9506 29.6ZM93.3506 30.88H92.9986C92.3906 30.88 91.868 31.0667 91.4306 31.44C91.004 31.8027 90.7906 32.2773 90.7906 32.864C90.7906 33.4507 91.0093 33.936 91.4466 34.32C91.8946 34.6933 92.46 34.88 93.1426 34.88C93.8573 34.88 94.428 34.6987 94.8546 34.336C95.292 33.9627 95.5106 33.472 95.5106 32.864C95.5 32.2667 95.292 31.7867 94.8866 31.424C94.4813 31.0613 93.9693 30.88 93.3506 30.88ZM89.4306 33.104C89.4306 32.432 89.6226 31.84 90.0066 31.328C90.3906 30.8053 90.9026 30.4533 91.5426 30.272V30.224C91.0306 30.0533 90.6093 29.7227 90.2786 29.232C89.948 28.7307 89.7826 28.176 89.7826 27.568C89.7826 26.704 90.1026 26 90.7426 25.456C91.3933 24.912 92.1933 24.64 93.1426 24.64C94.092 24.64 94.892 24.912 95.5426 25.456C96.1933 26 96.5186 26.704 96.5186 27.568C96.5186 28.1333 96.348 28.6613 96.0066 29.152C95.676 29.632 95.2333 29.984 94.6786 30.208V30.256C95.3186 30.3627 95.8413 30.672 96.2466 31.184C96.6626 31.6853 96.8706 32.2933 96.8706 33.008C96.8706 33.9893 96.5133 34.7573 95.7986 35.312C95.0733 35.8773 94.1933 36.16 93.1586 36.16C92.1026 36.16 91.2173 35.8827 90.5026 35.328C89.788 34.7733 89.4306 34.032 89.4306 33.104ZM98.7223 39.296L97.9062 38.592C98.7916 37.8027 99.4743 36.8693 99.9543 35.792C100.434 34.7147 100.674 33.584 100.674 32.4C100.674 31.184 100.45 30.08 100.002 29.088C99.5649 28.0853 98.8663 27.1253 97.9062 26.208L98.7063 25.504C100.872 27.456 101.954 29.7547 101.954 32.4C101.954 35.1413 100.877 37.44 98.7223 39.296ZM114.332 30.4C114.332 32.2133 114.028 33.6213 113.42 34.624C112.822 35.6267 111.926 36.128 110.732 36.128C109.526 36.128 108.609 35.616 107.98 34.592C107.372 33.5573 107.068 32.16 107.068 30.4C107.068 28.6507 107.366 27.2587 107.964 26.224C108.572 25.1893 109.484 24.672 110.7 24.672C111.926 24.672 112.833 25.1893 113.42 26.224C114.028 27.248 114.332 28.64 114.332 30.4ZM110.732 34.928C111.51 34.928 112.076 34.5547 112.428 33.808C112.79 33.0613 112.972 31.9253 112.972 30.4C112.972 28.8853 112.785 27.7547 112.412 27.008C112.049 26.2507 111.478 25.872 110.7 25.872C109.185 25.872 108.428 27.3813 108.428 30.4C108.428 33.4187 109.196 34.928 110.732 34.928ZM119.779 29.6H120.195C120.675 29.6 121.091 29.4187 121.443 29.056C121.805 28.6933 121.987 28.2613 121.987 27.76C121.987 27.2053 121.795 26.7627 121.411 26.432C121.027 26.0907 120.541 25.92 119.955 25.92C119.379 25.92 118.904 26.0907 118.531 26.432C118.157 26.7733 117.971 27.216 117.971 27.76C117.971 28.2613 118.152 28.6933 118.515 29.056C118.877 29.4187 119.299 29.6 119.779 29.6ZM120.179 30.88H119.827C119.219 30.88 118.696 31.0667 118.259 31.44C117.832 31.8027 117.619 32.2773 117.619 32.864C117.619 33.4507 117.837 33.936 118.275 34.32C118.723 34.6933 119.288 34.88 119.971 34.88C120.685 34.88 121.256 34.6987 121.683 34.336C122.12 33.9627 122.339 33.472 122.339 32.864C122.328 32.2667 122.12 31.7867 121.715 31.424C121.309 31.0613 120.797 30.88 120.179 30.88ZM116.259 33.104C116.259 32.432 116.451 31.84 116.835 31.328C117.219 30.8053 117.731 30.4533 118.371 30.272V30.224C117.859 30.0533 117.437 29.7227 117.107 29.232C116.776 28.7307 116.611 28.176 116.611 27.568C116.611 26.704 116.931 26 117.571 25.456C118.221 24.912 119.021 24.64 119.971 24.64C120.92 24.64 121.72 24.912 122.371 25.456C123.021 26 123.347 26.704 123.347 27.568C123.347 28.1333 123.176 28.6613 122.835 29.152C122.504 29.632 122.061 29.984 121.507 30.208V30.256C122.147 30.3627 122.669 30.672 123.075 31.184C123.491 31.6853 123.699 32.2933 123.699 33.008C123.699 33.9893 123.341 34.7573 122.627 35.312C121.901 35.8773 121.021 36.16 119.987 36.16C118.931 36.16 118.045 35.8827 117.331 35.328C116.616 34.7733 116.259 34.032 116.259 33.104ZM125.534 32.032C125.534 31.072 125.694 30.1493 126.014 29.264C126.345 28.3787 126.782 27.6267 127.326 27.008C128.446 25.7387 129.662 24.9493 130.974 24.64L131.502 25.616C130.446 25.8827 129.492 26.4533 128.638 27.328C127.817 28.1813 127.284 29.2693 127.038 30.592C127.572 29.6 128.452 29.104 129.678 29.104C130.606 29.104 131.369 29.424 131.966 30.064C132.574 30.704 132.878 31.5307 132.878 32.544C132.878 33.5893 132.532 34.4587 131.838 35.152C131.156 35.824 130.35 36.16 129.422 36.16C128.217 36.16 127.268 35.7653 126.574 34.976C125.881 34.1653 125.534 33.184 125.534 32.032ZM126.894 32.032C126.894 32.832 127.113 33.5093 127.55 34.064C127.988 34.608 128.606 34.88 129.406 34.88C130.004 34.88 130.505 34.6613 130.91 34.224C131.316 33.7653 131.518 33.2373 131.518 32.64C131.518 31.9467 131.316 31.3867 130.91 30.96C130.516 30.5227 129.961 30.304 129.246 30.304C128.681 30.304 128.185 30.4693 127.758 30.8C127.342 31.1307 127.054 31.5413 126.894 32.032ZM138.618 32.24H134.794V31.04H138.618V32.24ZM141.397 30.432L142.101 24.8H147.157V26.08H143.221L142.805 29.104C143.061 29.0293 143.359 28.992 143.701 28.992C144.735 28.992 145.583 29.312 146.245 29.952C146.906 30.5813 147.237 31.4187 147.237 32.464C147.237 33.584 146.885 34.48 146.181 35.152C145.477 35.824 144.613 36.16 143.589 36.16C142.927 36.16 142.303 36.0107 141.717 35.712C141.13 35.4133 140.682 34.9973 140.373 34.464L141.109 33.52C141.365 33.936 141.722 34.2667 142.181 34.512C142.65 34.7573 143.13 34.88 143.621 34.88C144.261 34.88 144.794 34.656 145.221 34.208C145.658 33.7493 145.877 33.184 145.877 32.512C145.877 31.8293 145.626 31.264 145.125 30.816C144.634 30.368 143.978 30.144 143.157 30.144C142.485 30.144 141.898 30.24 141.397 30.432ZM156.079 28.848C156.079 30.9067 155.551 32.592 154.495 33.904C153.46 35.1947 152.121 35.9467 150.479 36.16L150.047 35.152C151.316 34.9067 152.345 34.3627 153.135 33.52C153.924 32.6773 154.404 31.6053 154.575 30.304C154.073 31.232 153.231 31.696 152.047 31.696C151.065 31.696 150.265 31.3707 149.647 30.72C149.017 30.0587 148.703 29.2373 148.703 28.256C148.703 27.2 149.065 26.336 149.791 25.664C150.505 24.9813 151.332 24.64 152.271 24.64C153.476 24.64 154.409 25.0347 155.071 25.824C155.743 26.6133 156.079 27.6213 156.079 28.848ZM154.719 28.848C154.719 28.0267 154.511 27.3333 154.095 26.768C153.679 26.2027 153.076 25.92 152.286 25.92C151.679 25.92 151.156 26.144 150.719 26.592C150.281 27.0293 150.062 27.552 150.062 28.16C150.062 28.8213 150.271 29.376 150.687 29.824C151.113 30.272 151.673 30.496 152.367 30.496C152.943 30.496 153.439 30.3413 153.855 30.032C154.271 29.7227 154.559 29.328 154.719 28.848ZM161.899 32.24H158.075V31.04H161.899V32.24ZM167.654 29.6H168.07C168.55 29.6 168.966 29.4187 169.318 29.056C169.68 28.6933 169.862 28.2613 169.862 27.76C169.862 27.2053 169.67 26.7627 169.286 26.432C168.902 26.0907 168.416 25.92 167.83 25.92C167.254 25.92 166.779 26.0907 166.406 26.432C166.032 26.7733 165.846 27.216 165.846 27.76C165.846 28.2613 166.027 28.6933 166.39 29.056C166.752 29.4187 167.174 29.6 167.654 29.6ZM168.054 30.88H167.702C167.094 30.88 166.571 31.0667 166.134 31.44C165.707 31.8027 165.494 32.2773 165.494 32.864C165.494 33.4507 165.712 33.936 166.15 34.32C166.598 34.6933 167.163 34.88 167.846 34.88C168.56 34.88 169.131 34.6987 169.558 34.336C169.995 33.9627 170.214 33.472 170.214 32.864C170.203 32.2667 169.995 31.7867 169.59 31.424C169.184 31.0613 168.672 30.88 168.054 30.88ZM164.134 33.104C164.134 32.432 164.326 31.84 164.71 31.328C165.094 30.8053 165.606 30.4533 166.246 30.272V30.224C165.734 30.0533 165.312 29.7227 164.982 29.232C164.651 28.7307 164.486 28.176 164.486 27.568C164.486 26.704 164.806 26 165.446 25.456C166.096 24.912 166.896 24.64 167.846 24.64C168.795 24.64 169.595 24.912 170.246 25.456C170.896 26 171.222 26.704 171.222 27.568C171.222 28.1333 171.051 28.6613 170.71 29.152C170.379 29.632 169.936 29.984 169.382 30.208V30.256C170.022 30.3627 170.544 30.672 170.95 31.184C171.366 31.6853 171.574 32.2933 171.574 33.008C171.574 33.9893 171.216 34.7573 170.502 35.312C169.776 35.8773 168.896 36.16 167.862 36.16C166.806 36.16 165.92 35.8827 165.206 35.328C164.491 34.7733 164.134 34.032 164.134 33.104ZM180.161 36H173.329V34.96C174.78 33.5413 175.847 32.4107 176.529 31.568C177.735 30.0533 178.337 28.784 178.337 27.76C178.337 27.2267 178.172 26.7947 177.841 26.464C177.521 26.1227 177.079 25.952 176.513 25.952C176.023 25.952 175.591 26.112 175.217 26.432C174.855 26.7413 174.62 27.1787 174.513 27.744L173.425 27.296C173.553 26.496 173.911 25.8613 174.497 25.392C175.095 24.912 175.804 24.672 176.625 24.672C177.607 24.672 178.364 24.9547 178.897 25.52C179.431 26.0853 179.697 26.7467 179.697 27.504C179.697 28.944 179.009 30.4747 177.633 32.096C177.015 32.8213 176.519 33.3653 176.145 33.728C175.825 34.048 175.441 34.4053 174.993 34.8H180.161V36Z" fill="white"/>
</svg>
