<svg width="808" height="160" viewBox="0 0 808 160" fill="none" xmlns="http://www.w3.org/2000/svg">
<g clip-path="url(#clip0_93_456)">
<path d="M93.0687 1.81741V65.8792H33.6252V1.81741H2.76904V159.473H18.1971H33.6252V93.1395H93.0687V159.473H108.497H123.471V1.81741H93.0687Z" fill="#D20A11"/>
<path d="M161.587 41.3447H146.613V159.473H161.587H176.561V41.3447H161.587Z" fill="#D20A11"/>
<path d="M176.561 1.81744H146.613V27.7148H176.561V1.81744Z" fill="#D20A11"/>
<path d="M362.606 1.81744L333.111 112.676L305.431 1.81744H282.743L255.063 112.676L225.114 1.81744H194.258L241.904 159.473H254.609H266.861L294.087 53.6121L321.313 159.473H333.565H345.817L393.916 1.81744H362.606Z" fill="#706F6F"/>
<path d="M525.509 1.81744V42.2536H511.442V66.3336H525.509V159.473H554.097V66.3336H571.34V42.2536H554.097V1.81744H525.509Z" fill="#706F6F"/>
<path d="M610.363 124.035C617.169 130.85 625.337 134.484 635.774 134.484C641.219 134.484 646.211 133.121 651.202 130.395C656.193 127.669 659.824 123.58 662.092 118.583H693.856C689.772 130.85 682.512 140.845 671.622 148.115C660.731 155.384 648.479 159.019 634.413 159.019C616.716 159.019 602.195 153.112 589.49 141.299C577.238 129.487 570.885 115.402 570.885 98.5916C570.885 81.7811 577.238 67.6966 589.49 55.8838C601.741 44.071 616.716 38.1646 634.413 38.1646C648.479 38.1646 661.185 41.7993 672.075 49.523C682.966 57.2468 690.68 67.2422 694.764 79.5094H663C660.277 74.0573 656.647 69.9683 651.656 67.2422C646.664 64.5162 641.219 63.1532 634.413 63.1532C624.884 63.1532 616.716 66.3336 610.363 73.1487C603.556 79.9637 600.38 88.1418 600.38 97.683C599.926 108.587 603.556 117.22 610.363 124.035Z" fill="#706F6F"/>
<path d="M807.752 159.473H793.231H778.711V94.9569C778.711 84.5071 776.896 76.7834 772.812 71.3313C768.728 65.8792 762.829 63.1532 755.115 63.1532C746.947 63.1532 740.594 65.8792 736.51 71.3313C732.426 76.7834 730.158 84.9615 730.158 95.8656V159.473H716.091H701.57V1.81744H716.091H730.611V47.2513C739.687 39.0732 748.308 35.4385 760.106 35.4385C774.173 35.4385 787.332 43.1623 795.5 52.2491C803.668 61.3358 807.752 73.603 807.752 89.0505V159.473Z" fill="#706F6F"/>
<path d="M443.376 63.1531C433.393 63.1531 424.772 66.7878 417.965 73.6029C411.159 80.418 407.983 89.0504 407.983 99.0458C407.983 109.041 411.159 117.674 417.965 124.489C424.772 131.304 432.94 134.939 442.923 134.939C452.905 134.939 461.527 131.304 468.334 124.489C475.14 117.674 478.316 109.041 478.316 99.0458C478.316 89.0504 475.14 80.418 468.334 73.6029C461.527 66.3335 453.359 63.1531 443.376 63.1531ZM504.635 159.473H491.476H478.316V143.117C466.972 154.021 453.813 159.473 437.931 159.473C421.596 159.473 407.529 153.567 396.185 141.754C384.84 129.941 378.941 115.856 378.941 99.0458C378.941 82.2353 384.84 68.1508 396.185 56.338C407.529 44.5252 421.596 38.6188 438.385 38.6188C454.267 38.6188 467.88 44.0708 478.77 54.975V42.2535H505.089V159.473H504.635Z" fill="#706F6F"/>
</g>
<defs>
<clipPath id="clip0_93_456">
<rect width="807" height="160" fill="white" transform="translate(0.5)"/>
</clipPath>
</defs>
</svg>
