<svg width="926" height="253" viewBox="0 0 926 253" fill="none" xmlns="http://www.w3.org/2000/svg">
<g clip-path="url(#clip0_93_497)">
<path d="M119.981 88.2643H119.898C116.483 88.2621 113.206 89.617 110.786 92.0319C108.367 94.4468 107.002 97.7245 106.991 101.146L106.594 220.656C99.8423 223.457 80.1179 227.967 67.8314 227.967C41.1653 227.967 26.2809 213.253 26.2809 193.673V101.196C26.2809 97.7707 24.9228 94.4857 22.5053 92.0636C20.0879 89.6416 16.8092 88.2809 13.3904 88.2809C9.97168 88.2809 6.69295 89.6416 4.27552 92.0636C1.8581 94.4857 0.5 97.7707 0.5 101.196V196.152C0.5 231.589 22.9052 252.098 69.2876 252.098C95.1015 252.098 116.29 247.124 132.888 240.277V101.196C132.885 97.7669 131.525 94.479 129.105 92.0543C126.685 89.6297 123.403 88.2665 119.981 88.2643Z" fill="#50B5C8"/>
<path d="M223.435 88.0654C197.638 88.0654 176.424 93.0391 159.852 99.8945V238.984C159.856 242.41 161.218 245.695 163.638 248.117C166.058 250.538 169.338 251.899 172.759 251.899H172.825C176.239 251.899 179.514 250.544 181.934 248.132C184.354 245.72 185.722 242.445 185.74 239.025L186.145 119.524C192.888 116.73 212.621 112.221 224.891 112.221C251.582 112.221 266.45 126.943 266.45 146.506V239.025C266.45 242.453 267.809 245.74 270.228 248.163C272.647 250.587 275.928 251.948 279.349 251.948C282.77 251.948 286.05 250.587 288.469 248.163C290.888 245.74 292.247 242.453 292.247 239.025V144.019C292.247 108.582 269.842 88.0654 223.452 88.0654" fill="#50B5C8"/>
<path d="M856.63 88.0654C843.807 88.0225 831.016 89.3452 818.472 92.0112V12.8716C818.472 6.17367 812.779 0.735779 805.763 0.735779C798.747 0.735779 793.046 6.17367 793.046 12.8716V238.984C793.046 242.409 794.405 245.694 796.822 248.116C799.239 250.538 802.518 251.899 805.937 251.899H806.02C809.431 251.896 812.703 250.541 815.12 248.129C817.538 245.716 818.903 242.443 818.918 239.025L819.357 119.524C826.108 116.73 845.833 112.221 858.119 112.221C884.802 112.221 899.67 126.943 899.67 146.506V239.025C899.755 242.397 901.152 245.602 903.562 247.957C905.973 250.311 909.206 251.629 912.573 251.629C915.939 251.629 919.172 250.311 921.583 247.957C923.993 245.602 925.39 242.397 925.475 239.025V144.019C925.475 108.582 903.062 88.0654 856.688 88.0654" fill="#50B5C8"/>
<path d="M621.408 88.0654H615.981C595.545 88.0654 581.612 94.009 574.232 98.2781C573.602 95.1808 571.846 92.4282 569.306 90.5537C566.766 88.6792 563.622 87.8162 560.483 88.1321C557.344 88.4479 554.433 89.9201 552.316 92.2633C550.198 94.6064 549.024 97.6537 549.022 100.815V239.166C549.106 242.49 550.484 245.649 552.86 247.97C555.236 250.291 558.424 251.59 561.743 251.59C565.061 251.59 568.249 250.291 570.625 247.97C573.001 245.649 574.379 242.49 574.463 239.166V124.771C587.245 117.649 601.588 113.807 616.212 113.589C622.004 113.514 621.408 113.589 621.408 113.589C624.726 113.504 627.879 112.124 630.196 109.743C632.512 107.362 633.809 104.169 633.809 100.844C633.809 97.5186 632.512 94.3252 630.196 91.9443C627.879 89.5633 624.726 88.1834 621.408 88.0986" fill="#50B5C8"/>
<path d="M331.969 88.0654C330.296 88.061 328.639 88.3877 327.092 89.0267C325.545 89.6656 324.14 90.6043 322.956 91.7888C321.772 92.9733 320.833 94.3804 320.194 95.9293C319.554 97.4782 319.226 99.1384 319.228 100.815V239.166C319.228 242.545 320.568 245.786 322.952 248.175C325.337 250.565 328.572 251.907 331.944 251.907C335.317 251.907 338.552 250.565 340.937 248.175C343.321 245.786 344.661 242.545 344.661 239.166V100.815C344.663 97.4384 343.328 94.1993 340.948 91.8089C338.569 89.4184 335.339 88.072 331.969 88.0654Z" fill="#50B5C8"/>
<path d="M331.969 28.5221C328.936 28.5188 325.971 29.4169 323.447 31.1027C320.924 32.7886 318.956 35.1864 317.793 37.9928C316.63 40.7993 316.324 43.8883 316.914 46.869C317.504 49.8497 318.963 52.5882 321.106 54.7381C323.25 56.8879 325.981 58.3525 328.956 58.9465C331.93 59.5406 335.014 59.2373 337.816 58.0752C340.618 56.9131 343.014 54.9444 344.699 52.418C346.384 49.8916 347.284 46.9212 347.284 43.8825C347.282 39.8122 345.668 35.909 342.797 33.0293C339.926 30.1497 336.032 28.5287 331.969 28.5221Z" fill="#50B5C8"/>
<path d="M509.333 88.0737C507.662 88.0715 506.007 88.3991 504.462 89.0378C502.917 89.6765 501.513 90.6138 500.33 91.7961C499.147 92.9784 498.208 94.3827 497.566 95.9287C496.925 97.4746 496.593 99.1321 496.591 100.806V111.317C482.803 98.4183 464.647 91.2351 445.782 91.2154C403.678 91.2154 369.54 126.57 369.54 170.189C369.54 213.808 403.678 249.138 445.782 249.138C464.646 249.129 482.803 241.951 496.591 229.053V239.149C496.548 240.851 496.845 242.545 497.465 244.13C498.086 245.716 499.016 247.16 500.203 248.38C501.389 249.599 502.807 250.568 504.373 251.23C505.939 251.891 507.621 252.232 509.32 252.232C511.02 252.232 512.702 251.891 514.268 251.23C515.834 250.568 517.252 249.599 518.438 248.38C519.624 247.16 520.555 245.716 521.175 244.13C521.796 242.545 522.093 240.851 522.049 239.149V100.806C522.047 97.4286 520.707 94.1901 518.322 91.8025C515.937 89.4149 512.704 88.0737 509.333 88.0737ZM445.782 223.565C417.826 223.565 395.073 199.617 395.073 170.189C395.073 140.762 417.826 116.813 445.782 116.813C473.739 116.813 496.517 140.745 496.517 170.189C496.517 199.633 473.764 223.565 445.782 223.565Z" fill="#50B5C8"/>
<path d="M745.621 220.523C733.931 225.538 728.189 225.447 715.795 225.447C699.347 225.447 687.813 221.12 676.85 210.153C665.888 199.186 660.816 186.03 660.816 169.534C660.816 153.038 664.051 139.493 677.363 126.835C687.193 117.476 695.805 113.638 712.824 113.638C722.218 113.518 731.588 114.585 740.715 116.813C750.279 118.969 760.489 122.027 766.165 115.006C770.567 108.947 767.257 99.8779 761.267 97.2916C747.715 91.4392 735.155 88.0405 717.019 88.0405C693.994 88.0405 674.418 95.9072 658.83 111.417C643.243 126.926 635.316 146.506 635.316 169.584C635.316 192.869 643.16 212.54 658.657 228.058C674.153 243.576 693.77 251.443 717.019 251.443C735.718 251.443 744.587 250.266 759.927 243.153C765.644 240.484 770.823 232.377 767.15 225.928C763.476 219.478 754.739 216.602 745.638 220.523" fill="#50B5C8"/>
<path d="M737.447 58.6544C708.398 23.0096 665.259 0.304749 617.04 0.304749C568.821 0.304749 525.64 22.9682 496.591 58.6544C531.912 36.8033 573.049 22.2884 617.023 22.2884C660.998 22.2884 702.118 36.8033 737.447 58.6544Z" fill="#50B5C8"/>
</g>
<defs>
<clipPath id="clip0_93_497">
<rect width="925" height="252" fill="white" transform="translate(0.5 0.304749)"/>
</clipPath>
</defs>
</svg>
