<svg width="31" height="34" viewBox="0 0 31 34" fill="none" xmlns="http://www.w3.org/2000/svg">
<path d="M30.2333 6.10756C30.15 5.90956 30.05 5.72806 29.9333 5.54656C29.7 5.20006 29.3833 4.88656 29.0333 4.65556C28.85 4.54006 28.6667 4.44106 28.4667 4.35856C28.0667 4.19356 27.6333 4.09456 27.1667 4.09456H25.5V0.794556H22.1667V4.09456H8.83333V0.794556H5.5V4.09456H3.83333C3.13333 4.09456 2.5 4.30906 1.96667 4.65556C1.61667 4.88656 1.3 5.20006 1.06667 5.54656C0.95 5.72806 0.85 5.90956 0.766667 6.10756C0.6 6.50356 0.5 6.93256 0.5 7.39456V30.4946C0.5 31.3697 0.85119 32.2091 1.47631 32.828C2.10143 33.4469 2.94928 33.7946 3.83333 33.7946H27.1667C27.6333 33.7946 28.0667 33.6956 28.4667 33.5306C28.6667 33.4481 28.85 33.3491 29.0333 33.2336C29.3833 33.0026 29.7 32.6891 29.9333 32.3426C30.2833 31.8146 30.5 31.1711 30.5 30.4946V7.39456C30.5 6.93256 30.4 6.50356 30.2333 6.10756ZM3.83333 30.4946V7.39456H27.1667V30.4946H3.83333ZM15.5 20.3966C12.1167 20.3966 5.5 22.1786 5.5 26.3036V28.8446H25.5V26.3201C25.5 22.1786 18.8833 20.3966 15.5 20.3966ZM9.35 25.5446C10.5 24.6206 13.3167 23.6966 15.5 23.6966C17.6833 23.6966 20.5167 24.6206 21.65 25.5446H9.35ZM15.5 18.9446C18.25 18.9446 20.5 16.7171 20.5 13.9946C20.5 11.2721 18.25 9.04456 15.5 9.04456C12.75 9.04456 10.5 11.2721 10.5 13.9946C10.5 16.7171 12.75 18.9446 15.5 18.9446ZM15.5 12.3446C16.4167 12.3446 17.1667 13.0871 17.1667 13.9946C17.1667 14.9021 16.4167 15.6446 15.5 15.6446C14.5833 15.6446 13.8333 14.9021 13.8333 13.9946C13.8333 13.0871 14.5833 12.3446 15.5 12.3446Z" fill="#00BF08"/>
</svg>
