<svg width="120" height="120" viewBox="0 0 120 120" fill="none" xmlns="http://www.w3.org/2000/svg">
<mask id="path-2-inside-1_59_497" fill="white">
<path d="M55.3856 42.3205H49.4634C49.4634 42.3205 49.3751 48.5307 42.7587 49.5831C42.683 51.276 44.229 78.1075 55.3856 90.0429V92.0559C55.3856 92.1478 55.5749 92.9023 55.6002 92.9911L58.6038 104.143C33.6593 81.9338 34.8835 47.7191 35.0633 43.4649C35.0728 43.243 35.2274 43.0591 35.4388 42.9989C42.3959 41.0049 44.6739 35.8345 45.2166 34.4143C45.2292 34.3826 45.2418 34.3572 45.2576 34.3287C48.5516 28.8445 52.7227 32.2365 53.0476 32.4996C53.2874 32.6929 53.2464 32.7056 55.3856 32.6834V42.3237V42.3205Z"/>
<path d="M41.1938 45.7981C41.7583 45.7981 42.216 45.3382 42.216 44.771C42.216 44.2037 41.7583 43.7438 41.1938 43.7438C40.6292 43.7438 40.1715 44.2037 40.1715 44.771C40.1715 45.3382 40.6292 45.7981 41.1938 45.7981Z"/>
<path d="M49.2899 39.3248C49.8544 39.3248 50.3121 38.8649 50.3121 38.2977C50.3121 37.7304 49.8544 37.2705 49.2899 37.2705C48.7253 37.2705 48.2676 37.7304 48.2676 38.2977C48.2676 38.8649 48.7253 39.3248 49.2899 39.3248Z"/>
<path d="M39.714 62.5932C40.2786 62.5932 40.7363 62.1333 40.7363 61.5661C40.7363 60.9988 40.2786 60.539 39.714 60.539C39.1494 60.539 38.6917 60.9988 38.6917 61.5661C38.6917 62.1333 39.1494 62.5932 39.714 62.5932Z"/>
<path d="M44.7622 81.3157C45.3268 81.3157 45.7845 80.8558 45.7845 80.2886C45.7845 79.7213 45.3268 79.2615 44.7622 79.2615C44.1976 79.2615 43.74 79.7213 43.74 80.2886C43.74 80.8558 44.1976 81.3157 44.7622 81.3157Z"/>
<path d="M52.4261 93.828C52.9907 93.828 53.4483 93.3681 53.4483 92.8009C53.4483 92.2336 52.9907 91.7738 52.4261 91.7738C51.8615 91.7738 51.4038 92.2336 51.4038 92.8009C51.4038 93.3681 51.8615 93.828 52.4261 93.828Z"/>
<path d="M64.6144 42.311H70.5366C70.5366 42.311 70.6249 48.5212 77.2413 49.5736C77.317 51.2665 75.771 78.098 64.6144 90.0334V92.0464C64.6144 92.1383 64.4251 92.8928 64.3998 92.9816L61.3962 104.134C86.3407 81.9275 85.1165 47.7128 84.9367 43.4585C84.9272 43.2366 84.7726 43.0528 84.5612 42.9925C77.6041 40.9986 75.3261 35.8282 74.7834 34.408C74.7708 34.3763 74.7582 34.3509 74.7424 34.3224C71.4484 28.8381 67.2773 32.2301 66.9524 32.4932C66.7126 32.6866 66.7536 32.6993 64.6144 32.6771V42.3173V42.311Z"/>
<path d="M78.8062 45.7854C79.3708 45.7854 79.8285 45.3255 79.8285 44.7583C79.8285 44.191 79.3708 43.7312 78.8062 43.7312C78.2417 43.7312 77.784 44.191 77.784 44.7583C77.784 45.3255 78.2417 45.7854 78.8062 45.7854Z"/>
<path d="M70.7101 39.3121C71.2747 39.3121 71.7324 38.8522 71.7324 38.285C71.7324 37.7177 71.2747 37.2579 70.7101 37.2579C70.1455 37.2579 69.6879 37.7177 69.6879 38.285C69.6879 38.8522 70.1455 39.3121 70.7101 39.3121Z"/>
<path d="M80.286 62.5837C80.8506 62.5837 81.3083 62.1238 81.3083 61.5565C81.3083 60.9893 80.8506 60.5294 80.286 60.5294C79.7214 60.5294 79.2637 60.9893 79.2637 61.5565C79.2637 62.1238 79.7214 62.5837 80.286 62.5837Z"/>
<path d="M75.2378 81.3062C75.8024 81.3062 76.26 80.8463 76.26 80.279C76.26 79.7118 75.8024 79.2519 75.2378 79.2519C74.6732 79.2519 74.2155 79.7118 74.2155 80.279C74.2155 80.8463 74.6732 81.3062 75.2378 81.3062Z"/>
<path d="M67.5739 93.8153C68.1385 93.8153 68.5962 93.3554 68.5962 92.7882C68.5962 92.2209 68.1385 91.7611 67.5739 91.7611C67.0093 91.7611 66.5517 92.2209 66.5517 92.7882C66.5517 93.3554 67.0093 93.8153 67.5739 93.8153Z"/>
<path d="M63.8161 15.5935C63.6679 13.5013 62.0556 10.9842 59.9164 11.0001C57.7772 10.9842 56.1649 13.5013 56.0166 15.5935C58.4461 14.2526 61.3898 14.2526 63.8193 15.5935H63.8161Z"/>
<path d="M63.8161 29.0664C61.3867 27.7254 58.4429 27.7254 56.0135 29.0664C56.0135 29.6782 56.0135 30.29 56.0135 30.905C58.4429 29.5641 61.3867 29.5641 63.8161 30.905V29.0664Z"/>
<path d="M63.8161 26.0041C61.3867 24.6631 58.4429 24.6631 56.0135 26.0041C56.0135 26.6159 56.0135 27.2277 56.0135 27.8427C58.4429 26.5018 61.3867 26.5018 63.8161 27.8427V26.0041Z"/>
<path d="M63.8161 22.9449C61.3867 21.604 58.4429 21.604 56.0135 22.9449C56.0135 23.5568 56.0135 24.1686 56.0135 24.7836C58.4429 23.4426 61.3867 23.4426 63.8161 24.7836V22.9449Z"/>
<path d="M63.8161 19.8826C61.3867 18.5417 58.4429 18.5417 56.0135 19.8826C56.0135 20.4945 56.0135 21.1063 56.0135 21.7213C58.4429 20.3804 61.3867 20.3804 63.8161 21.7213V19.8826Z"/>
<path d="M63.8161 16.8203C61.3867 15.4794 58.4429 15.4794 56.0135 16.8203C56.0135 17.4322 56.0135 18.044 56.0135 18.659C58.4429 17.3181 61.3867 17.3181 63.8161 18.659V16.8203Z"/>
<path d="M55.3856 32.9941V92.0527C55.3856 92.1447 55.3982 92.2398 55.4235 92.3285L59.989 109L64.5544 92.3285C64.5797 92.2398 64.5923 92.1447 64.5923 92.0527V32.9941C64.5923 32.1731 63.9171 31.5073 63.0873 31.5073H56.8906C56.0608 31.5073 55.3856 32.1731 55.3856 32.9941Z"/>
<path d="M60.071 37.6827L59.9132 97.6543L59.7555 37.6827C59.7555 37.4893 60.0678 37.4607 60.071 37.6827Z"/>
</mask>
<path d="M55.3856 42.3205H49.4634C49.4634 42.3205 49.3751 48.5307 42.7587 49.5831C42.683 51.276 44.229 78.1075 55.3856 90.0429V92.0559C55.3856 92.1478 55.5749 92.9023 55.6002 92.9911L58.6038 104.143C33.6593 81.9338 34.8835 47.7191 35.0633 43.4649C35.0728 43.243 35.2274 43.0591 35.4388 42.9989C42.3959 41.0049 44.6739 35.8345 45.2166 34.4143C45.2292 34.3826 45.2418 34.3572 45.2576 34.3287C48.5516 28.8445 52.7227 32.2365 53.0476 32.4996C53.2874 32.6929 53.2464 32.7056 55.3856 32.6834V42.3237V42.3205Z" fill="#0E2E4A"/>
<path d="M41.1938 45.7981C41.7583 45.7981 42.216 45.3382 42.216 44.771C42.216 44.2037 41.7583 43.7438 41.1938 43.7438C40.6292 43.7438 40.1715 44.2037 40.1715 44.771C40.1715 45.3382 40.6292 45.7981 41.1938 45.7981Z" fill="#0E2E4A"/>
<path d="M49.2899 39.3248C49.8544 39.3248 50.3121 38.8649 50.3121 38.2977C50.3121 37.7304 49.8544 37.2705 49.2899 37.2705C48.7253 37.2705 48.2676 37.7304 48.2676 38.2977C48.2676 38.8649 48.7253 39.3248 49.2899 39.3248Z" fill="#0E2E4A"/>
<path d="M39.714 62.5932C40.2786 62.5932 40.7363 62.1333 40.7363 61.5661C40.7363 60.9988 40.2786 60.539 39.714 60.539C39.1494 60.539 38.6917 60.9988 38.6917 61.5661C38.6917 62.1333 39.1494 62.5932 39.714 62.5932Z" fill="#0E2E4A"/>
<path d="M44.7622 81.3157C45.3268 81.3157 45.7845 80.8558 45.7845 80.2886C45.7845 79.7213 45.3268 79.2615 44.7622 79.2615C44.1976 79.2615 43.74 79.7213 43.74 80.2886C43.74 80.8558 44.1976 81.3157 44.7622 81.3157Z" fill="#0E2E4A"/>
<path d="M52.4261 93.828C52.9907 93.828 53.4483 93.3681 53.4483 92.8009C53.4483 92.2336 52.9907 91.7738 52.4261 91.7738C51.8615 91.7738 51.4038 92.2336 51.4038 92.8009C51.4038 93.3681 51.8615 93.828 52.4261 93.828Z" fill="#0E2E4A"/>
<path d="M64.6144 42.311H70.5366C70.5366 42.311 70.6249 48.5212 77.2413 49.5736C77.317 51.2665 75.771 78.098 64.6144 90.0334V92.0464C64.6144 92.1383 64.4251 92.8928 64.3998 92.9816L61.3962 104.134C86.3407 81.9275 85.1165 47.7128 84.9367 43.4585C84.9272 43.2366 84.7726 43.0528 84.5612 42.9925C77.6041 40.9986 75.3261 35.8282 74.7834 34.408C74.7708 34.3763 74.7582 34.3509 74.7424 34.3224C71.4484 28.8381 67.2773 32.2301 66.9524 32.4932C66.7126 32.6866 66.7536 32.6993 64.6144 32.6771V42.3173V42.311Z" fill="#0E2E4A"/>
<path d="M78.8062 45.7854C79.3708 45.7854 79.8285 45.3255 79.8285 44.7583C79.8285 44.191 79.3708 43.7312 78.8062 43.7312C78.2417 43.7312 77.784 44.191 77.784 44.7583C77.784 45.3255 78.2417 45.7854 78.8062 45.7854Z" fill="#0E2E4A"/>
<path d="M70.7101 39.3121C71.2747 39.3121 71.7324 38.8522 71.7324 38.285C71.7324 37.7177 71.2747 37.2579 70.7101 37.2579C70.1455 37.2579 69.6879 37.7177 69.6879 38.285C69.6879 38.8522 70.1455 39.3121 70.7101 39.3121Z" fill="#0E2E4A"/>
<path d="M80.286 62.5837C80.8506 62.5837 81.3083 62.1238 81.3083 61.5565C81.3083 60.9893 80.8506 60.5294 80.286 60.5294C79.7214 60.5294 79.2637 60.9893 79.2637 61.5565C79.2637 62.1238 79.7214 62.5837 80.286 62.5837Z" fill="#0E2E4A"/>
<path d="M75.2378 81.3062C75.8024 81.3062 76.26 80.8463 76.26 80.279C76.26 79.7118 75.8024 79.2519 75.2378 79.2519C74.6732 79.2519 74.2155 79.7118 74.2155 80.279C74.2155 80.8463 74.6732 81.3062 75.2378 81.3062Z" fill="#0E2E4A"/>
<path d="M67.5739 93.8153C68.1385 93.8153 68.5962 93.3554 68.5962 92.7882C68.5962 92.2209 68.1385 91.7611 67.5739 91.7611C67.0093 91.7611 66.5517 92.2209 66.5517 92.7882C66.5517 93.3554 67.0093 93.8153 67.5739 93.8153Z" fill="#0E2E4A"/>
<path d="M63.8161 15.5935C63.6679 13.5013 62.0556 10.9842 59.9164 11.0001C57.7772 10.9842 56.1649 13.5013 56.0166 15.5935C58.4461 14.2526 61.3898 14.2526 63.8193 15.5935H63.8161Z" fill="#0E2E4A"/>
<path d="M63.8161 29.0664C61.3867 27.7254 58.4429 27.7254 56.0135 29.0664C56.0135 29.6782 56.0135 30.29 56.0135 30.905C58.4429 29.5641 61.3867 29.5641 63.8161 30.905V29.0664Z" fill="#0E2E4A"/>
<path d="M63.8161 26.0041C61.3867 24.6631 58.4429 24.6631 56.0135 26.0041C56.0135 26.6159 56.0135 27.2277 56.0135 27.8427C58.4429 26.5018 61.3867 26.5018 63.8161 27.8427V26.0041Z" fill="#0E2E4A"/>
<path d="M63.8161 22.9449C61.3867 21.604 58.4429 21.604 56.0135 22.9449C56.0135 23.5568 56.0135 24.1686 56.0135 24.7836C58.4429 23.4426 61.3867 23.4426 63.8161 24.7836V22.9449Z" fill="#0E2E4A"/>
<path d="M63.8161 19.8826C61.3867 18.5417 58.4429 18.5417 56.0135 19.8826C56.0135 20.4945 56.0135 21.1063 56.0135 21.7213C58.4429 20.3804 61.3867 20.3804 63.8161 21.7213V19.8826Z" fill="#0E2E4A"/>
<path d="M63.8161 16.8203C61.3867 15.4794 58.4429 15.4794 56.0135 16.8203C56.0135 17.4322 56.0135 18.044 56.0135 18.659C58.4429 17.3181 61.3867 17.3181 63.8161 18.659V16.8203Z" fill="#0E2E4A"/>
<path d="M55.3856 32.9941V92.0527C55.3856 92.1447 55.3982 92.2398 55.4235 92.3285L59.989 109L64.5544 92.3285C64.5797 92.2398 64.5923 92.1447 64.5923 92.0527V32.9941C64.5923 32.1731 63.9171 31.5073 63.0873 31.5073H56.8906C56.0608 31.5073 55.3856 32.1731 55.3856 32.9941Z" fill="#0E2E4A"/>
<path d="M60.071 37.6827L59.9132 97.6543L59.7555 37.6827C59.7555 37.4893 60.0678 37.4607 60.071 37.6827Z" fill="#0E2E4A"/>
<path d="M55.3856 42.3205H49.4634C49.4634 42.3205 49.3751 48.5307 42.7587 49.5831C42.683 51.276 44.229 78.1075 55.3856 90.0429V92.0559C55.3856 92.1478 55.5749 92.9023 55.6002 92.9911L58.6038 104.143C33.6593 81.9338 34.8835 47.7191 35.0633 43.4649C35.0728 43.243 35.2274 43.0591 35.4388 42.9989C42.3959 41.0049 44.6739 35.8345 45.2166 34.4143C45.2292 34.3826 45.2418 34.3572 45.2576 34.3287C48.5516 28.8445 52.7227 32.2365 53.0476 32.4996C53.2874 32.6929 53.2464 32.7056 55.3856 32.6834V42.3237V42.3205Z" stroke="white" stroke-width="2" mask="url(#path-2-inside-1_59_497)"/>
<path d="M41.1938 45.7981C41.7583 45.7981 42.216 45.3382 42.216 44.771C42.216 44.2037 41.7583 43.7438 41.1938 43.7438C40.6292 43.7438 40.1715 44.2037 40.1715 44.771C40.1715 45.3382 40.6292 45.7981 41.1938 45.7981Z" stroke="white" stroke-width="2" mask="url(#path-2-inside-1_59_497)"/>
<path d="M49.2899 39.3248C49.8544 39.3248 50.3121 38.8649 50.3121 38.2977C50.3121 37.7304 49.8544 37.2705 49.2899 37.2705C48.7253 37.2705 48.2676 37.7304 48.2676 38.2977C48.2676 38.8649 48.7253 39.3248 49.2899 39.3248Z" stroke="white" stroke-width="2" mask="url(#path-2-inside-1_59_497)"/>
<path d="M39.714 62.5932C40.2786 62.5932 40.7363 62.1333 40.7363 61.5661C40.7363 60.9988 40.2786 60.539 39.714 60.539C39.1494 60.539 38.6917 60.9988 38.6917 61.5661C38.6917 62.1333 39.1494 62.5932 39.714 62.5932Z" stroke="white" stroke-width="2" mask="url(#path-2-inside-1_59_497)"/>
<path d="M44.7622 81.3157C45.3268 81.3157 45.7845 80.8558 45.7845 80.2886C45.7845 79.7213 45.3268 79.2615 44.7622 79.2615C44.1976 79.2615 43.74 79.7213 43.74 80.2886C43.74 80.8558 44.1976 81.3157 44.7622 81.3157Z" stroke="white" stroke-width="2" mask="url(#path-2-inside-1_59_497)"/>
<path d="M52.4261 93.828C52.9907 93.828 53.4483 93.3681 53.4483 92.8009C53.4483 92.2336 52.9907 91.7738 52.4261 91.7738C51.8615 91.7738 51.4038 92.2336 51.4038 92.8009C51.4038 93.3681 51.8615 93.828 52.4261 93.828Z" stroke="white" stroke-width="2" mask="url(#path-2-inside-1_59_497)"/>
<path d="M64.6144 42.311H70.5366C70.5366 42.311 70.6249 48.5212 77.2413 49.5736C77.317 51.2665 75.771 78.098 64.6144 90.0334V92.0464C64.6144 92.1383 64.4251 92.8928 64.3998 92.9816L61.3962 104.134C86.3407 81.9275 85.1165 47.7128 84.9367 43.4585C84.9272 43.2366 84.7726 43.0528 84.5612 42.9925C77.6041 40.9986 75.3261 35.8282 74.7834 34.408C74.7708 34.3763 74.7582 34.3509 74.7424 34.3224C71.4484 28.8381 67.2773 32.2301 66.9524 32.4932C66.7126 32.6866 66.7536 32.6993 64.6144 32.6771V42.3173V42.311Z" stroke="white" stroke-width="2" mask="url(#path-2-inside-1_59_497)"/>
<path d="M78.8062 45.7854C79.3708 45.7854 79.8285 45.3255 79.8285 44.7583C79.8285 44.191 79.3708 43.7312 78.8062 43.7312C78.2417 43.7312 77.784 44.191 77.784 44.7583C77.784 45.3255 78.2417 45.7854 78.8062 45.7854Z" stroke="white" stroke-width="2" mask="url(#path-2-inside-1_59_497)"/>
<path d="M70.7101 39.3121C71.2747 39.3121 71.7324 38.8522 71.7324 38.285C71.7324 37.7177 71.2747 37.2579 70.7101 37.2579C70.1455 37.2579 69.6879 37.7177 69.6879 38.285C69.6879 38.8522 70.1455 39.3121 70.7101 39.3121Z" stroke="white" stroke-width="2" mask="url(#path-2-inside-1_59_497)"/>
<path d="M80.286 62.5837C80.8506 62.5837 81.3083 62.1238 81.3083 61.5565C81.3083 60.9893 80.8506 60.5294 80.286 60.5294C79.7214 60.5294 79.2637 60.9893 79.2637 61.5565C79.2637 62.1238 79.7214 62.5837 80.286 62.5837Z" stroke="white" stroke-width="2" mask="url(#path-2-inside-1_59_497)"/>
<path d="M75.2378 81.3062C75.8024 81.3062 76.26 80.8463 76.26 80.279C76.26 79.7118 75.8024 79.2519 75.2378 79.2519C74.6732 79.2519 74.2155 79.7118 74.2155 80.279C74.2155 80.8463 74.6732 81.3062 75.2378 81.3062Z" stroke="white" stroke-width="2" mask="url(#path-2-inside-1_59_497)"/>
<path d="M67.5739 93.8153C68.1385 93.8153 68.5962 93.3554 68.5962 92.7882C68.5962 92.2209 68.1385 91.7611 67.5739 91.7611C67.0093 91.7611 66.5517 92.2209 66.5517 92.7882C66.5517 93.3554 67.0093 93.8153 67.5739 93.8153Z" stroke="white" stroke-width="2" mask="url(#path-2-inside-1_59_497)"/>
<path d="M63.8161 15.5935C63.6679 13.5013 62.0556 10.9842 59.9164 11.0001C57.7772 10.9842 56.1649 13.5013 56.0166 15.5935C58.4461 14.2526 61.3898 14.2526 63.8193 15.5935H63.8161Z" stroke="white" stroke-width="2" mask="url(#path-2-inside-1_59_497)"/>
<path d="M63.8161 29.0664C61.3867 27.7254 58.4429 27.7254 56.0135 29.0664C56.0135 29.6782 56.0135 30.29 56.0135 30.905C58.4429 29.5641 61.3867 29.5641 63.8161 30.905V29.0664Z" stroke="white" stroke-width="2" mask="url(#path-2-inside-1_59_497)"/>
<path d="M63.8161 26.0041C61.3867 24.6631 58.4429 24.6631 56.0135 26.0041C56.0135 26.6159 56.0135 27.2277 56.0135 27.8427C58.4429 26.5018 61.3867 26.5018 63.8161 27.8427V26.0041Z" stroke="white" stroke-width="2" mask="url(#path-2-inside-1_59_497)"/>
<path d="M63.8161 22.9449C61.3867 21.604 58.4429 21.604 56.0135 22.9449C56.0135 23.5568 56.0135 24.1686 56.0135 24.7836C58.4429 23.4426 61.3867 23.4426 63.8161 24.7836V22.9449Z" stroke="white" stroke-width="2" mask="url(#path-2-inside-1_59_497)"/>
<path d="M63.8161 19.8826C61.3867 18.5417 58.4429 18.5417 56.0135 19.8826C56.0135 20.4945 56.0135 21.1063 56.0135 21.7213C58.4429 20.3804 61.3867 20.3804 63.8161 21.7213V19.8826Z" stroke="white" stroke-width="2" mask="url(#path-2-inside-1_59_497)"/>
<path d="M63.8161 16.8203C61.3867 15.4794 58.4429 15.4794 56.0135 16.8203C56.0135 17.4322 56.0135 18.044 56.0135 18.659C58.4429 17.3181 61.3867 17.3181 63.8161 18.659V16.8203Z" stroke="white" stroke-width="2" mask="url(#path-2-inside-1_59_497)"/>
<path d="M55.3856 32.9941V92.0527C55.3856 92.1447 55.3982 92.2398 55.4235 92.3285L59.989 109L64.5544 92.3285C64.5797 92.2398 64.5923 92.1447 64.5923 92.0527V32.9941C64.5923 32.1731 63.9171 31.5073 63.0873 31.5073H56.8906C56.0608 31.5073 55.3856 32.1731 55.3856 32.9941Z" stroke="white" stroke-width="2" mask="url(#path-2-inside-1_59_497)"/>
<path d="M60.071 37.6827L59.9132 97.6543L59.7555 37.6827C59.7555 37.4893 60.0678 37.4607 60.071 37.6827Z" stroke="white" stroke-width="2" mask="url(#path-2-inside-1_59_497)"/>
<path d="M65.0918 59.4242C68.079 56.8617 74.5945 53.8935 73.1019 40H45V78.4166L47.3294 86H74.5965C74.5965 86 77.9901 65.3606 65.0938 59.4262L65.0918 59.4242ZM55.4522 45.8005H62.7825C62.9172 58.075 55.4522 56.1881 55.4522 56.1881V45.8005ZM64.1403 81.143H55.4522V61.5829C68.8917 66.9796 64.1403 81.143 64.1403 81.143Z" fill="#267DC9" stroke="white" stroke-miterlimit="10" stroke-linecap="round"/>
</svg>
