<svg width="114" height="122" viewBox="0 0 114 122" fill="none" xmlns="http://www.w3.org/2000/svg">
<rect width="113.924" height="120" rx="56.962" fill="black"/>
<g filter="url(#filter0_d_60_724)">
<path d="M52.7921 43.2653H47.0423C47.0423 43.2653 46.9565 49.2663 40.5328 50.2833C40.4593 51.9191 41.9603 77.8467 52.7921 89.38V91.3251C52.7921 91.414 52.9759 92.143 53.0004 92.2288L55.9166 103.005C31.6983 81.5441 32.8869 48.4821 33.0615 44.3711C33.0707 44.1567 33.2208 43.979 33.426 43.9208C40.1805 41.994 42.3922 36.9978 42.9191 35.6255C42.9314 35.5948 42.9436 35.5703 42.9589 35.5428C46.157 30.2433 50.2067 33.521 50.5222 33.7753C50.755 33.9621 50.7152 33.9744 52.7921 33.9529V43.2684V43.2653Z" stroke="white" stroke-width="0.7892" stroke-miterlimit="10" stroke-linecap="round"/>
<path d="M39.6114 45.6332C39.6114 45.9634 39.3437 46.2311 39.0135 46.2311C38.6833 46.2311 38.4156 45.9634 38.4156 45.6332C38.4156 45.303 38.6833 45.0353 39.0135 45.0353C39.3437 45.0353 39.6114 45.303 39.6114 45.6332Z" fill="white" stroke="white" stroke-width="0.7892"/>
<path d="M47.4719 39.378C47.4719 39.7082 47.2042 39.9759 46.874 39.9759C46.5438 39.9759 46.2761 39.7082 46.2761 39.378C46.2761 39.0478 46.5438 38.7801 46.874 38.7801C47.2042 38.7801 47.4719 39.0478 47.4719 39.378Z" fill="white" stroke="white" stroke-width="0.7892"/>
<path d="M38.1746 61.8625C38.1746 62.1927 37.9069 62.4604 37.5767 62.4604C37.2465 62.4604 36.9788 62.1927 36.9788 61.8625C36.9788 61.5323 37.2465 61.2646 37.5767 61.2646C37.9069 61.2646 38.1746 61.5323 38.1746 61.8625Z" fill="white" stroke="white" stroke-width="0.7892"/>
<path d="M43.0761 79.9542C43.0761 80.2845 42.8084 80.5522 42.4782 80.5522C42.148 80.5522 41.8803 80.2845 41.8803 79.9542C41.8803 79.624 42.148 79.3563 42.4782 79.3563C42.8084 79.3563 43.0761 79.624 43.0761 79.9542Z" fill="white" stroke="white" stroke-width="0.7892"/>
<path d="M50.5166 92.045C50.5166 92.3752 50.2489 92.6429 49.9187 92.6429C49.5884 92.6429 49.3207 92.3752 49.3207 92.045C49.3207 91.7148 49.5884 91.4471 49.9187 91.4471C50.2489 91.4471 50.5166 91.7148 50.5166 92.045Z" fill="white" stroke="white" stroke-width="0.7892"/>
<path d="M61.7522 43.2561H67.502C67.502 43.2561 67.5878 49.2571 74.0115 50.2741C74.085 51.9099 72.584 77.8375 61.7522 89.3708V91.316C61.7522 91.4048 61.5684 92.1339 61.5439 92.2196L58.6277 102.996C82.846 81.538 81.6574 48.476 81.4828 44.365C81.4736 44.1506 81.3236 43.9729 81.1183 43.9147C74.3638 41.9879 72.1521 36.9917 71.6252 35.6194C71.6129 35.5887 71.6007 35.5642 71.5854 35.5367C68.3873 30.2372 64.3376 33.5149 64.0221 33.7691C63.7893 33.956 63.8291 33.9683 61.7522 33.9468V43.2623V43.2561Z" stroke="white" stroke-width="0.7892" stroke-miterlimit="10" stroke-linecap="round"/>
<path d="M76.1287 45.621C76.1287 45.9512 75.861 46.2189 75.5308 46.2189C75.2006 46.2189 74.9329 45.9512 74.9329 45.621C74.9329 45.2908 75.2006 45.0231 75.5308 45.0231C75.861 45.0231 76.1287 45.2908 76.1287 45.621Z" fill="white" stroke="white" stroke-width="0.7892"/>
<path d="M68.2685 39.3658C68.2685 39.696 68.0008 39.9637 67.6706 39.9637C67.3404 39.9637 67.0727 39.696 67.0727 39.3658C67.0727 39.0355 67.3404 38.7678 67.6706 38.7678C68.0008 38.7678 68.2685 39.0355 68.2685 39.3658Z" fill="white" stroke="white" stroke-width="0.7892"/>
<path d="M77.5655 61.8533C77.5655 62.1835 77.2978 62.4512 76.9676 62.4512C76.6374 62.4512 76.3697 62.1835 76.3697 61.8533C76.3697 61.5231 76.6374 61.2554 76.9676 61.2554C77.2978 61.2554 77.5655 61.5231 77.5655 61.8533Z" fill="white" stroke="white" stroke-width="0.7892"/>
<path d="M72.6643 79.945C72.6643 80.2752 72.3966 80.5429 72.0664 80.5429C71.7361 80.5429 71.4685 80.2752 71.4685 79.945C71.4685 79.6148 71.7361 79.3471 72.0664 79.3471C72.3966 79.3471 72.6643 79.6148 72.6643 79.945Z" fill="white" stroke="white" stroke-width="0.7892"/>
<path d="M65.2236 92.0328C65.2236 92.363 64.9559 92.6307 64.6257 92.6307C64.2955 92.6307 64.0278 92.363 64.0278 92.0328C64.0278 91.7025 64.2955 91.4349 64.6257 91.4349C64.9559 91.4349 65.2236 91.7025 65.2236 92.0328Z" fill="white" stroke="white" stroke-width="0.7892"/>
<path d="M59.4976 14.698C59.964 15.2967 60.3038 16.0301 60.4729 16.7514C58.3797 15.8455 56.0017 15.846 53.9088 16.7528C54.0777 16.0311 54.4177 15.2971 54.8844 14.698C55.508 13.8973 56.3142 13.3882 57.1881 13.3947L57.1881 13.3947L57.1939 13.3947C58.0678 13.3882 58.874 13.8973 59.4976 14.698Z" fill="white" stroke="white" stroke-width="0.7892"/>
<path d="M60.5826 31.5969C58.426 30.6251 55.953 30.6251 53.7963 31.5969V31.5948V31.5913V31.5878V31.5844V31.5809V31.5774V31.574V31.5705V31.567V31.5635V31.5601V31.5566V31.5531V31.5497V31.5462V31.5427V31.5392V31.5358V31.5323V31.5288V31.5254V31.5219V31.5184V31.515V31.5115V31.508V31.5045V31.5011V31.4976V31.4941V31.4907V31.4872V31.4837V31.4802V31.4768V31.4733V31.4698V31.4664V31.4629V31.4594V31.456V31.4525V31.449V31.4456V31.4421V31.4386V31.4351V31.4317V31.4282V31.4247V31.4213V31.4178V31.4143V31.4109V31.4074V31.4039V31.4004V31.397V31.3935V31.39V31.3866V31.3831V31.3796V31.3762V31.3727V31.3692V31.3658V31.3623V31.3588V31.3554V31.3519V31.3484V31.3449V31.3415V31.338V31.3345V31.3311V31.3276V31.3241V31.3207V31.3172V31.3137V31.3103V31.3068V31.3033V31.2999V31.2964V31.2929V31.2895V31.286V31.2825V31.279V31.2756V31.2721V31.2686V31.2652V31.2617V31.2582V31.2548V31.2513V31.2478V31.2444V31.2409V31.2374V31.234V31.2305V31.227V31.2236V31.2201V31.2166V31.2132V31.2097V31.2062V31.2028V31.1993V31.1958V31.1924V31.1889V31.1854V31.182V31.1785V31.175V31.1716V31.1681V31.1646V31.1612V31.1577V31.1542V31.1508V31.1473V31.1438V31.1404V31.1369V31.1334V31.13V31.1265V31.123V31.1196V31.1161V31.1126V31.1092V31.1057V31.1022V31.0988V31.0953V31.0918V31.0884V31.0849V31.0814V31.078V31.0745V31.071V31.0676V31.0641V31.0606V31.0572V31.0537V31.0502V31.0468V31.0433V31.0398V31.0364V31.0329V31.0294V31.026V31.0225V31.019V31.0156V31.0121V31.0086V31.0052V31.0017V30.9982V30.9948V30.9913V30.9878V30.9844V30.9809V30.9774V30.974V30.9705V30.967V30.9636V30.9601V30.9566V30.9532V30.9497V30.9463V30.9428V30.9393V30.9359V30.9324V30.9289V30.9255V30.922V30.9185V30.9151V30.9116V30.9081V30.9047V30.9012V30.8977V30.8943V30.8908V30.8873V30.8839V30.8804V30.8769V30.8735V30.87V30.8665V30.8631V30.8596V30.8562V30.8527V30.8492V30.8458V30.8423V30.8388V30.8354V30.8319V30.8284V30.825V30.8215V30.818V30.8146V30.8111V30.8076V30.8042V30.8007V30.7972V30.7938V30.7903V30.7869V30.7834V30.7799V30.7765V30.773V30.7695V30.7661V30.7626V30.7591V30.7557V30.7522V30.7487V30.7453V30.7418V30.7384V30.7349V30.7314V30.728V30.7245V30.721V30.7176V30.7141V30.7106V30.7072V30.7037V30.7002V30.6968V30.6953C55.9273 29.6089 58.4516 29.6089 60.5826 30.6953V31.5969Z" fill="white" stroke="white" stroke-width="0.7892"/>
<path d="M60.5826 28.6377C58.426 27.6659 55.953 27.6659 53.7963 28.6377V28.6356V28.6321V28.6287V28.6252V28.6217V28.6183V28.6148V28.6113V28.6078V28.6044V28.6009V28.5974V28.594V28.5905V28.587V28.5836V28.5801V28.5766V28.5731V28.5697V28.5662V28.5627V28.5593V28.5558V28.5523V28.5488V28.5454V28.5419V28.5384V28.535V28.5315V28.528V28.5246V28.5211V28.5176V28.5141V28.5107V28.5072V28.5037V28.5003V28.4968V28.4933V28.4899V28.4864V28.4829V28.4794V28.476V28.4725V28.469V28.4656V28.4621V28.4586V28.4552V28.4517V28.4482V28.4448V28.4413V28.4378V28.4343V28.4309V28.4274V28.4239V28.4205V28.417V28.4135V28.4101V28.4066V28.4031V28.3997V28.3962V28.3927V28.3892V28.3858V28.3823V28.3788V28.3754V28.3719V28.3684V28.365V28.3615V28.358V28.3546V28.3511V28.3476V28.3442V28.3407V28.3372V28.3338V28.3303V28.3268V28.3233V28.3199V28.3164V28.3129V28.3095V28.306V28.3025V28.2991V28.2956V28.2921V28.2887V28.2852V28.2817V28.2783V28.2748V28.2713V28.2679V28.2644V28.2609V28.2575V28.254V28.2505V28.2471V28.2436V28.2401V28.2367V28.2332V28.2297V28.2263V28.2228V28.2193V28.2159V28.2124V28.2089V28.2055V28.202V28.1985V28.1951V28.1916V28.1881V28.1847V28.1812V28.1777V28.1743V28.1708V28.1673V28.1639V28.1604V28.1569V28.1535V28.15V28.1465V28.1431V28.1396V28.1361V28.1327V28.1292V28.1257V28.1223V28.1188V28.1153V28.1119V28.1084V28.1049V28.1015V28.098V28.0945V28.0911V28.0876V28.0841V28.0807V28.0772V28.0737V28.0703V28.0668V28.0633V28.0599V28.0564V28.0529V28.0495V28.046V28.0425V28.0391V28.0356V28.0321V28.0287V28.0252V28.0217V28.0183V28.0148V28.0113V28.0079V28.0044V28.0009V27.9975V27.994V27.9905V27.9871V27.9836V27.9802V27.9767V27.9732V27.9698V27.9663V27.9628V27.9594V27.9559V27.9524V27.949V27.9455V27.942V27.9386V27.9351V27.9316V27.9282V27.9247V27.9212V27.9178V27.9143V27.9108V27.9074V27.9039V27.9005V27.897V27.8935V27.8901V27.8866V27.8831V27.8797V27.8762V27.8727V27.8693V27.8658V27.8623V27.8589V27.8554V27.8519V27.8485V27.845V27.8415V27.8381V27.8346V27.8312V27.8277V27.8242V27.8208V27.8173V27.8138V27.8104V27.8069V27.8034V27.8V27.7965V27.793V27.7896V27.7861V27.7826V27.7792V27.7757V27.7723V27.7688V27.7653V27.7619V27.7584V27.7549V27.7515V27.748V27.7445V27.7411V27.7376V27.7361C55.9273 26.6498 58.4516 26.6498 60.5826 27.7361V28.6377Z" fill="white" stroke="white" stroke-width="0.7892"/>
<path d="M60.5826 25.6816C58.426 24.7098 55.953 24.7098 53.7963 25.6816V25.6795V25.6761V25.6726V25.6691V25.6657V25.6622V25.6587V25.6552V25.6518V25.6483V25.6448V25.6414V25.6379V25.6344V25.631V25.6275V25.624V25.6205V25.6171V25.6136V25.6101V25.6067V25.6032V25.5997V25.5962V25.5928V25.5893V25.5858V25.5824V25.5789V25.5754V25.572V25.5685V25.565V25.5615V25.5581V25.5546V25.5511V25.5477V25.5442V25.5407V25.5373V25.5338V25.5303V25.5268V25.5234V25.5199V25.5164V25.513V25.5095V25.506V25.5026V25.4991V25.4956V25.4921V25.4887V25.4852V25.4817V25.4783V25.4748V25.4713V25.4679V25.4644V25.4609V25.4575V25.454V25.4505V25.4471V25.4436V25.4401V25.4366V25.4332V25.4297V25.4262V25.4228V25.4193V25.4158V25.4124V25.4089V25.4054V25.402V25.3985V25.395V25.3916V25.3881V25.3846V25.3812V25.3777V25.3742V25.3707V25.3673V25.3638V25.3603V25.3569V25.3534V25.3499V25.3465V25.343V25.3395V25.3361V25.3326V25.3291V25.3257V25.3222V25.3187V25.3153V25.3118V25.3083V25.3049V25.3014V25.2979V25.2945V25.291V25.2875V25.2841V25.2806V25.2771V25.2737V25.2702V25.2667V25.2633V25.2598V25.2563V25.2529V25.2494V25.2459V25.2424V25.239V25.2355V25.232V25.2286V25.2251V25.2216V25.2182V25.2147V25.2112V25.2078V25.2043V25.2008V25.1974V25.1939V25.1904V25.187V25.1835V25.18V25.1766V25.1731V25.1697V25.1662V25.1627V25.1593V25.1558V25.1523V25.1489V25.1454V25.1419V25.1385V25.135V25.1315V25.1281V25.1246V25.1211V25.1177V25.1142V25.1107V25.1073V25.1038V25.1003V25.0969V25.0934V25.0899V25.0865V25.083V25.0795V25.0761V25.0726V25.0691V25.0657V25.0622V25.0587V25.0553V25.0518V25.0483V25.0449V25.0414V25.0379V25.0345V25.031V25.0275V25.0241V25.0206V25.0172V25.0137V25.0102V25.0068V25.0033V24.9998V24.9964V24.9929V24.9894V24.986V24.9825V24.979V24.9756V24.9721V24.9686V24.9652V24.9617V24.9582V24.9548V24.9513V24.9478V24.9444V24.9409V24.9375V24.934V24.9305V24.9271V24.9236V24.9201V24.9167V24.9132V24.9097V24.9063V24.9028V24.8993V24.8959V24.8924V24.8889V24.8855V24.882V24.8785V24.8751V24.8716V24.8682V24.8647V24.8612V24.8578V24.8543V24.8508V24.8474V24.8439V24.8404V24.837V24.8335V24.83V24.8266V24.8231V24.8196V24.8162V24.8127V24.8093V24.8058V24.8023V24.7989V24.7954V24.7919V24.7885V24.785V24.7815V24.78C55.9273 23.6937 58.4516 23.6937 60.5826 24.78V25.6816Z" fill="white" stroke="white" stroke-width="0.7892"/>
<path d="M60.5826 22.7225C58.426 21.7507 55.953 21.7507 53.7963 22.7225V22.7204V22.717V22.7135V22.71V22.7065V22.7031V22.6996V22.6961V22.6927V22.6892V22.6857V22.6822V22.6788V22.6753V22.6718V22.6684V22.6649V22.6614V22.6579V22.6545V22.651V22.6475V22.6441V22.6406V22.6371V22.6337V22.6302V22.6267V22.6232V22.6198V22.6163V22.6128V22.6094V22.6059V22.6024V22.599V22.5955V22.592V22.5885V22.5851V22.5816V22.5781V22.5747V22.5712V22.5677V22.5643V22.5608V22.5573V22.5538V22.5504V22.5469V22.5434V22.54V22.5365V22.533V22.5296V22.5261V22.5226V22.5192V22.5157V22.5122V22.5087V22.5053V22.5018V22.4983V22.4949V22.4914V22.4879V22.4845V22.481V22.4775V22.4741V22.4706V22.4671V22.4636V22.4602V22.4567V22.4532V22.4498V22.4463V22.4428V22.4394V22.4359V22.4324V22.429V22.4255V22.422V22.4186V22.4151V22.4116V22.4082V22.4047V22.4012V22.3978V22.3943V22.3908V22.3873V22.3839V22.3804V22.3769V22.3735V22.37V22.3665V22.3631V22.3596V22.3561V22.3527V22.3492V22.3457V22.3423V22.3388V22.3353V22.3319V22.3284V22.3249V22.3215V22.318V22.3145V22.3111V22.3076V22.3041V22.3007V22.2972V22.2937V22.2903V22.2868V22.2833V22.2799V22.2764V22.2729V22.2695V22.266V22.2625V22.2591V22.2556V22.2521V22.2487V22.2452V22.2417V22.2383V22.2348V22.2313V22.2279V22.2244V22.2209V22.2175V22.214V22.2105V22.2071V22.2036V22.2001V22.1967V22.1932V22.1897V22.1863V22.1828V22.1793V22.1759V22.1724V22.1689V22.1655V22.162V22.1585V22.1551V22.1516V22.1481V22.1447V22.1412V22.1377V22.1343V22.1308V22.1273V22.1239V22.1204V22.1169V22.1135V22.11V22.1065V22.1031V22.0996V22.0962V22.0927V22.0892V22.0858V22.0823V22.0788V22.0754V22.0719V22.0684V22.065V22.0615V22.058V22.0546V22.0511V22.0476V22.0442V22.0407V22.0372V22.0338V22.0303V22.0268V22.0234V22.0199V22.0164V22.013V22.0095V22.0061V22.0026V21.9991V21.9957V21.9922V21.9887V21.9853V21.9818V21.9783V21.9749V21.9714V21.9679V21.9645V21.961V21.9575V21.9541V21.9506V21.9471V21.9437V21.9402V21.9368V21.9333V21.9298V21.9264V21.9229V21.9194V21.916V21.9125V21.909V21.9056V21.9021V21.8986V21.8952V21.8917V21.8882V21.8848V21.8813V21.8778V21.8744V21.8709V21.8675V21.864V21.8605V21.8571V21.8536V21.8501V21.8467V21.8432V21.8397V21.8363V21.8328V21.8293V21.8259V21.8224V21.8209C55.9273 20.7346 58.4516 20.7346 60.5826 21.8209V22.7225Z" fill="white" stroke="white" stroke-width="0.7892"/>
<path d="M60.5826 19.7634C58.426 18.7916 55.953 18.7916 53.7963 19.7634V19.7613V19.7578V19.7544V19.7509V19.7474V19.7439V19.7405V19.737V19.7335V19.7301V19.7266V19.7231V19.7197V19.7162V19.7127V19.7092V19.7058V19.7023V19.6988V19.6954V19.6919V19.6884V19.6849V19.6815V19.678V19.6745V19.6711V19.6676V19.6641V19.6607V19.6572V19.6537V19.6502V19.6468V19.6433V19.6398V19.6364V19.6329V19.6294V19.6259V19.6225V19.619V19.6155V19.6121V19.6086V19.6051V19.6017V19.5982V19.5947V19.5913V19.5878V19.5843V19.5808V19.5774V19.5739V19.5704V19.567V19.5635V19.56V19.5566V19.5531V19.5496V19.5462V19.5427V19.5392V19.5357V19.5323V19.5288V19.5253V19.5219V19.5184V19.5149V19.5115V19.508V19.5045V19.5011V19.4976V19.4941V19.4907V19.4872V19.4837V19.4802V19.4768V19.4733V19.4698V19.4664V19.4629V19.4594V19.456V19.4525V19.449V19.4456V19.4421V19.4386V19.4352V19.4317V19.4282V19.4248V19.4213V19.4178V19.4144V19.4109V19.4074V19.404V19.4005V19.397V19.3936V19.3901V19.3866V19.3831V19.3797V19.3762V19.3727V19.3693V19.3658V19.3623V19.3589V19.3554V19.3519V19.3485V19.345V19.3415V19.3381V19.3346V19.3311V19.3277V19.3242V19.3207V19.3173V19.3138V19.3103V19.3069V19.3034V19.2999V19.2965V19.293V19.2895V19.2861V19.2826V19.2791V19.2757V19.2722V19.2687V19.2653V19.2618V19.2583V19.2549V19.2514V19.2479V19.2445V19.241V19.2375V19.2341V19.2306V19.2271V19.2237V19.2202V19.2167V19.2133V19.2098V19.2063V19.2029V19.1994V19.1959V19.1925V19.189V19.1855V19.1821V19.1786V19.1752V19.1717V19.1682V19.1648V19.1613V19.1578V19.1544V19.1509V19.1474V19.144V19.1405V19.137V19.1336V19.1301V19.1266V19.1232V19.1197V19.1162V19.1128V19.1093V19.1058V19.1024V19.0989V19.0954V19.092V19.0885V19.085V19.0816V19.0781V19.0747V19.0712V19.0677V19.0643V19.0608V19.0573V19.0539V19.0504V19.0469V19.0435V19.04V19.0365V19.0331V19.0296V19.0261V19.0227V19.0192V19.0157V19.0123V19.0088V19.0053V19.0019V18.9984V18.995V18.9915V18.988V18.9846V18.9811V18.9776V18.9742V18.9707V18.9672V18.9638V18.9603V18.9568V18.9534V18.9499V18.9464V18.943V18.9395V18.9361V18.9326V18.9291V18.9257V18.9222V18.9187V18.9153V18.9118V18.9083V18.9049V18.9014V18.8979V18.8945V18.891V18.8875V18.8841V18.8806V18.8772V18.8737V18.8702V18.8668V18.8633V18.8618C55.9273 17.7755 58.4516 17.7755 60.5826 18.8618V19.7634Z" fill="white" stroke="white" stroke-width="0.7892"/>
<path d="M52.7921 34.2531V91.3221C52.7921 91.4109 52.8044 91.5028 52.8289 91.5886L57.2614 107.698L61.694 91.5886C61.7185 91.5028 61.7308 91.4109 61.7308 91.3221V34.2531C61.7308 33.4597 61.0752 32.8164 60.2696 32.8164H54.2533C53.4477 32.8164 52.7921 33.4597 52.7921 34.2531Z" stroke="white" stroke-width="0.7892" stroke-miterlimit="10"/>
<mask id="path-21-inside-1_60_724" fill="white">
<path d="M57.3411 38.7837L57.188 96.7349L57.0348 38.7837C57.0348 38.5969 57.3381 38.5693 57.3411 38.7837Z"/>
</mask>
<path d="M57.3411 38.7837L57.188 96.7349L57.0348 38.7837C57.0348 38.5969 57.3381 38.5693 57.3411 38.7837Z" fill="white"/>
<path d="M57.3411 38.7837L58.1304 38.7858L58.1302 38.7724L57.3411 38.7837ZM57.188 96.7349L56.3988 96.737H57.9772L57.188 96.7349ZM57.0348 38.7837L56.2456 38.7837L56.2456 38.7858L57.0348 38.7837ZM56.5519 38.7816L56.3988 96.7328L57.9772 96.737L58.1303 38.7858L56.5519 38.7816ZM57.9772 96.7328L57.824 38.7816L56.2456 38.7858L56.3988 96.737L57.9772 96.7328ZM57.824 38.7837C57.824 39.2204 57.4507 39.4113 57.2225 39.4216C57.0951 39.4274 56.9272 39.3933 56.7794 39.2671C56.6164 39.1279 56.5541 38.9416 56.552 38.795L58.1302 38.7724C58.1266 38.5186 58.0252 38.2554 57.8045 38.0669C57.599 37.8914 57.3547 37.8356 57.1511 37.8448C56.7705 37.8621 56.2456 38.1602 56.2456 38.7837H57.824Z" fill="white" mask="url(#path-21-inside-1_60_724)"/>
</g>
<path d="M62.4991 61.9012C65.2496 59.5272 71.2486 56.7773 69.8744 43.9056H44V79.4968L46.1448 86.5224H71.2505C71.2505 86.5224 74.3751 67.401 62.501 61.9031L62.4991 61.9012ZM53.6237 49.2795H60.3729C60.497 60.6513 53.6237 58.9032 53.6237 58.9032V49.2795ZM61.6231 82.0226H53.6237V63.9011C65.9978 68.9009 61.6231 82.0226 61.6231 82.0226Z" fill="#267DC9" stroke="white" stroke-width="0.7892" stroke-miterlimit="10" stroke-linecap="round"/>
<defs>
<filter id="filter0_d_60_724" x="23.1348" y="6.6864" width="68.2747" height="115.127" filterUnits="userSpaceOnUse" color-interpolation-filters="sRGB">
<feFlood flood-opacity="0" result="BackgroundImageFix"/>
<feColorMatrix in="SourceAlpha" type="matrix" values="0 0 0 0 0 0 0 0 0 0 0 0 0 0 0 0 0 0 127 0" result="hardAlpha"/>
<feOffset dy="3.1568"/>
<feGaussianBlur stdDeviation="4.7352"/>
<feComposite in2="hardAlpha" operator="out"/>
<feColorMatrix type="matrix" values="0 0 0 0 1 0 0 0 0 1 0 0 0 0 1 0 0 0 1 0"/>
<feBlend mode="normal" in2="BackgroundImageFix" result="effect1_dropShadow_60_724"/>
<feBlend mode="normal" in="SourceGraphic" in2="effect1_dropShadow_60_724" result="shape"/>
</filter>
</defs>
</svg>
